<svg width="28" height="42" fill="none" xmlns="http://www.w3.org/2000/svg" viewBox="0 0 28 42"><path fill-rule="evenodd" clip-rule="evenodd" d="M1.895 34.707a14.13 14.13 0 0 0 5.095 5.336A13.576 13.576 0 0 0 14 42c2.463 0 4.883-.675 7.01-1.957a14.131 14.131 0 0 0 5.095-5.336A14.938 14.938 0 0 0 28 27.414c0-2.56-.654-5.075-1.895-7.293L15.458.88a1.702 1.702 0 0 0-.614-.643 1.635 1.635 0 0 0-1.688 0 1.702 1.702 0 0 0-.614.643L1.895 20.12A14.937 14.937 0 0 0 0 27.414c0 2.56.654 5.075 1.895 7.293Zm9.106-24.674 2.27-4.103a.851.851 0 0 1 .307-.321.818.818 0 0 1 .844 0 .851.851 0 0 1 .307.321l8.733 15.784c.784 1.4 1.27 2.955 1.426 4.563a11.719 11.719 0 0 1-.523 4.764 10.131 10.131 0 0 0-.446-1.532c-1.207-3.176-3.934-5.628-8.109-7.286-2.87-1.136-4.701-2.807-5.446-4.966-.959-2.783.043-5.818.637-7.224ZM7.13 17.03l-2.593 4.685a11.675 11.675 0 0 0-1.481 5.7c0 2.002.51 3.968 1.481 5.701a11.1 11.1 0 0 0 3.166 3.625 10.7 10.7 0 0 0 4.358 1.895c1.57.294 3.184.228 4.727-.193a10.761 10.761 0 0 0 4.2-2.245c.675-1.782.7-3.757.067-5.556-.886-2.295-3.018-4.127-6.338-5.447-3.753-1.485-6.19-3.804-7.245-6.89a10.005 10.005 0 0 1-.343-1.275Z" fill="#5CB1FF"/></svg>