<svg width="145" height="112" fill="none" xmlns="http://www.w3.org/2000/svg" viewBox="0 0 145 112"><g opacity=".8"><path d="M50.337 110c-.866-.782-1.337-1.623-1.337-2.5 0-4.142 10.521-7.5 23.5-7.5s23.5 3.358 23.5 7.5c0 .877-.471 1.718-1.337 2.5" stroke="#fff" stroke-width=".5"/><path d="M50.337 110c-.866-.782-1.337-1.623-1.337-2.5 0-4.142 10.521-7.5 23.5-7.5s23.5 3.358 23.5 7.5c0 .877-.471 1.718-1.337 2.5" stroke="#fff" stroke-width=".5"/><path d="M50.337 110c-.866-.782-1.337-1.623-1.337-2.5 0-4.142 10.521-7.5 23.5-7.5s23.5 3.358 23.5 7.5c0 .877-.471 1.718-1.337 2.5" stroke="#fff" stroke-width=".5"/><path d="M45.5 109c-5.5-1.543-7.5-3.409-7.5-6.171C38 96.296 53.67 91 73 91s35 5.296 35 11.829c0 2.859-3.502 4.126-8.5 6.171" stroke="#fff" stroke-width=".5"/><path d="M45.5 109c-5.5-1.543-7.5-3.409-7.5-6.171C38 96.296 53.67 91 73 91s35 5.296 35 11.829c0 2.859-3.502 4.126-8.5 6.171" stroke="#fff" stroke-width=".5"/><path d="M45.5 109c-5.5-1.543-7.5-3.409-7.5-6.171C38 96.296 53.67 91 73 91s35 5.296 35 11.829c0 2.859-3.502 4.126-8.5 6.171" stroke="#fff" stroke-width=".5"/><g opacity=".6" stroke="#fff" stroke-width=".5"><path d="M46.5 109.5C33.315 106.764 27 102.296 27 96.621 27 87.994 47.371 81 72.5 81S118 87.994 118 96.621c0 3.645-3.5 10.287-13.5 11.825"/><path d="M46.5 109.5C33.315 106.764 27 102.296 27 96.621 27 87.994 47.371 81 72.5 81S118 87.994 118 96.621c0 3.645-3.5 10.287-13.5 11.825"/><path d="M46.5 109.5C33.315 106.764 27 102.296 27 96.621 27 87.994 47.371 81 72.5 81S118 87.994 118 96.621c0 3.645-3.5 10.287-13.5 11.825"/></g><path d="M72.5 111.25c16.173 0 30.825-2.086 41.443-5.545 5.308-1.728 9.622-3.804 12.614-6.145 2.99-2.34 4.693-4.97 4.693-7.807 0-2.835-1.702-5.498-4.691-7.884-2.992-2.388-7.305-4.528-12.613-6.32-10.619-3.586-25.272-5.799-41.446-5.799s-30.827 2.213-41.446 5.799c-5.308 1.792-9.621 3.932-12.613 6.32-2.989 2.386-4.691 5.049-4.691 7.884 0 2.837 1.703 5.468 4.693 7.807 2.992 2.341 7.306 4.417 12.614 6.145 10.618 3.459 25.27 5.545 41.443 5.545Z" stroke="#636363" stroke-width=".5"/><path d="M95.047 12.055c2.09 2.618 2.573 6.144 1.625 9.753-.947 3.608-3.323 7.28-6.913 10.146-3.59 2.866-7.698 4.368-11.427 4.492-3.73.125-7.06-1.128-9.15-3.746-2.09-2.619-2.573-6.144-1.625-9.753.948-3.608 3.323-7.28 6.914-10.146 3.59-2.866 7.697-4.368 11.426-4.493 3.73-.124 7.06 1.129 9.15 3.747Z" stroke="#fff" stroke-width=".597"/><path d="M92.928 9.996c2.09 2.619 2.573 6.144 1.626 9.753-.948 3.609-3.324 7.28-6.914 10.146-3.59 2.866-7.698 4.369-11.427 4.493-3.729.124-7.06-1.128-9.15-3.747-2.09-2.618-2.572-6.143-1.624-9.752.947-3.61 3.323-7.28 6.913-10.147 3.59-2.865 7.698-4.368 11.427-4.492 3.729-.124 7.06 1.128 9.15 3.746Z" fill="#000" stroke="#fff" stroke-width=".597"/><path d="M72.5 111.25c19.763 0 37.666-2.633 50.636-6.895 6.484-2.132 11.749-4.675 15.399-7.51 3.646-2.834 5.715-5.99 5.715-9.345 0-3.356-2.069-6.511-5.715-9.345-3.65-2.835-8.915-5.379-15.399-7.51-12.97-4.263-30.873-6.895-50.636-6.895s-37.666 2.632-50.636 6.895c-6.484 2.132-11.75 4.675-15.399 7.51C2.82 80.99.75 84.145.75 87.5c0 3.356 2.07 6.511 5.715 9.345 3.65 2.835 8.915 5.378 15.399 7.51 12.97 4.262 30.873 6.895 50.636 6.895Z" stroke="#2E2E2E" stroke-width=".5"/><path d="M118.598 48.038a.4.4 0 0 0-.725-.194l-1.256 1.773-2.164.201a.4.4 0 0 0-.194.725l1.773 1.256.201 2.164a.4.4 0 0 0 .725.194l1.256-1.774 2.164-.2a.4.4 0 0 0 .194-.725l-1.774-1.256-.2-2.164ZM47.597 19.453a.4.4 0 0 0-.724-.194l-1.256 1.773-2.164.201a.4.4 0 0 0-.194.725l1.773 1.256.201 2.164a.4.4 0 0 0 .725.194l1.256-1.774 2.164-.2a.4.4 0 0 0 .194-.725l-1.774-1.256-.2-2.164Z" stroke="#fff" stroke-width=".4"/><mask id="a" fill="#fff"><path fill-rule="evenodd" clip-rule="evenodd" d="M54.01 65.043c.22-.18.433-.373.637-.577 5.05-5.051 2.828-15.463-4.965-23.256-7.793-7.793-18.205-10.016-23.256-4.965-.14.14-.273.283-.402.431-1.191.904-2.445 2.136-3.779 3.75-5.051 5.051-2.828 15.463 4.965 23.256 7.793 7.793 18.205 10.016 23.256 4.965 1.468-1.288 2.636-2.485 3.543-3.604Z"/></mask><path fill-rule="evenodd" clip-rule="evenodd" d="M54.01 65.043c.22-.18.433-.373.637-.577 5.05-5.051 2.828-15.463-4.965-23.256-7.793-7.793-18.205-10.016-23.256-4.965-.14.14-.273.283-.402.431-1.191.904-2.445 2.136-3.779 3.75-5.051 5.051-2.828 15.463 4.965 23.256 7.793 7.793 18.205 10.016 23.256 4.965 1.468-1.288 2.636-2.485 3.543-3.604Z" fill="#080808"/><path d="m54.01 65.043-.38-.465-.048.039-.04.048.467.378ZM26.023 36.676l.363.478.049-.037.04-.047-.452-.394Zm-3.779 3.75.424.424.02-.02.019-.022-.463-.382Zm28.22 28.22-.395-.45-.015.013-.014.014.425.424Zm3.758-4.604c-.19.19-.388.368-.593.536l.759.93a9.12 9.12 0 0 0 .682-.618l-.848-.848Zm-4.965-22.408c3.827 3.827 6.265 8.278 7.136 12.358.873 4.086.163 7.716-2.171 10.05l.848.848c2.717-2.717 3.421-6.818 2.497-11.149-.926-4.337-3.495-8.99-7.462-12.955l-.848.848ZM26.85 36.67c2.334-2.333 5.964-3.043 10.05-2.171 4.08.87 8.531 3.31 12.358 7.136l.848-.848c-3.966-3.967-8.617-6.536-12.955-7.462-4.33-.924-8.432-.22-11.15 2.497l.85.849Zm-.373.401c.119-.137.244-.27.373-.4l-.848-.849c-.15.15-.293.303-.43.461l.905.788Zm-3.77 3.738c1.313-1.589 2.535-2.785 3.68-3.654l-.726-.956c-1.237.939-2.524 2.206-3.879 3.846l.926.764Zm4.927 22.45c-3.827-3.827-6.265-8.278-7.136-12.357-.873-4.087-.163-7.717 2.171-10.05l-.848-.85c-2.717 2.718-3.421 6.82-2.497 11.15.926 4.338 3.495 8.99 7.461 12.955l.849-.848Zm22.407 4.965c-2.333 2.334-5.963 3.044-10.05 2.171-4.08-.87-8.53-3.31-12.357-7.136l-.849.848c3.967 3.967 8.618 6.536 12.956 7.462 4.33.924 8.432.22 11.15-2.497l-.85-.848Zm3.502-3.558c-.88 1.087-2.024 2.26-3.473 3.531l.792.902c1.486-1.305 2.68-2.525 3.613-3.678l-.932-.755Z" fill="#fff" mask="url(#a)"/><path d="m54.01 65.043-.38-.465-.048.039-.04.048.467.378ZM26.023 36.676l.363.478.049-.037.04-.047-.452-.394Zm-3.779 3.75.424.424.02-.02.019-.022-.463-.382Zm28.22 28.22-.395-.45-.015.013-.014.014.425.424Zm3.758-4.604c-.19.19-.388.368-.593.536l.759.93a9.12 9.12 0 0 0 .682-.618l-.848-.848Zm-4.965-22.408c3.827 3.827 6.265 8.278 7.136 12.358.873 4.086.163 7.716-2.171 10.05l.848.848c2.717-2.717 3.421-6.818 2.497-11.149-.926-4.337-3.495-8.99-7.462-12.955l-.848.848ZM26.85 36.67c2.334-2.333 5.964-3.043 10.05-2.171 4.08.87 8.531 3.31 12.358 7.136l.848-.848c-3.966-3.967-8.617-6.536-12.955-7.462-4.33-.924-8.432-.22-11.15 2.497l.85.849Zm-.373.401c.119-.137.244-.27.373-.4l-.848-.849c-.15.15-.293.303-.43.461l.905.788Zm-3.77 3.738c1.313-1.589 2.535-2.785 3.68-3.654l-.726-.956c-1.237.939-2.524 2.206-3.879 3.846l.926.764Zm4.927 22.45c-3.827-3.827-6.265-8.278-7.136-12.357-.873-4.087-.163-7.717 2.171-10.05l-.848-.85c-2.717 2.718-3.421 6.82-2.497 11.15.926 4.338 3.495 8.99 7.461 12.955l.849-.848Zm22.407 4.965c-2.333 2.334-5.963 3.044-10.05 2.171-4.08-.87-8.53-3.31-12.357-7.136l-.849.848c3.967 3.967 8.618 6.536 12.956 7.462 4.33.924 8.432.22 11.15-2.497l-.85-.848Zm3.502-3.558c-.88 1.087-2.024 2.26-3.473 3.531l.792.902c1.486-1.305 2.68-2.525 3.613-3.678l-.932-.755Z" fill="#fff" mask="url(#a)"/><path d="m54.01 65.043-.38-.465-.048.039-.04.048.467.378ZM26.023 36.676l.363.478.049-.037.04-.047-.452-.394Zm-3.779 3.75.424.424.02-.02.019-.022-.463-.382Zm28.22 28.22-.395-.45-.015.013-.014.014.425.424Zm3.758-4.604c-.19.19-.388.368-.593.536l.759.93a9.12 9.12 0 0 0 .682-.618l-.848-.848Zm-4.965-22.408c3.827 3.827 6.265 8.278 7.136 12.358.873 4.086.163 7.716-2.171 10.05l.848.848c2.717-2.717 3.421-6.818 2.497-11.149-.926-4.337-3.495-8.99-7.462-12.955l-.848.848ZM26.85 36.67c2.334-2.333 5.964-3.043 10.05-2.171 4.08.87 8.531 3.31 12.358 7.136l.848-.848c-3.966-3.967-8.617-6.536-12.955-7.462-4.33-.924-8.432-.22-11.15 2.497l.85.849Zm-.373.401c.119-.137.244-.27.373-.4l-.848-.849c-.15.15-.293.303-.43.461l.905.788Zm-3.77 3.738c1.313-1.589 2.535-2.785 3.68-3.654l-.726-.956c-1.237.939-2.524 2.206-3.879 3.846l.926.764Zm4.927 22.45c-3.827-3.827-6.265-8.278-7.136-12.357-.873-4.087-.163-7.717 2.171-10.05l-.848-.85c-2.717 2.718-3.421 6.82-2.497 11.15.926 4.338 3.495 8.99 7.461 12.955l.849-.848Zm22.407 4.965c-2.333 2.334-5.963 3.044-10.05 2.171-4.08-.87-8.53-3.31-12.357-7.136l-.849.848c3.967 3.967 8.618 6.536 12.956 7.462 4.33.924 8.432.22 11.15-2.497l-.85-.848Zm3.502-3.558c-.88 1.087-2.024 2.26-3.473 3.531l.792.902c1.486-1.305 2.68-2.525 3.613-3.678l-.932-.755Z" fill="#fff" mask="url(#a)"/><path d="M54.435 64.254c-2.43 2.43-6.178 3.138-10.325 2.253-4.144-.885-8.645-3.356-12.507-7.218-3.862-3.861-6.333-8.363-7.218-12.507-.885-4.147-.176-7.895 2.253-10.325 2.43-2.43 6.178-3.138 10.325-2.252 4.144.884 8.645 3.355 12.507 7.217 3.862 3.862 6.333 8.363 7.218 12.507.885 4.147.176 7.895-2.253 10.325Z" fill="#080808"/><path d="M54.435 64.254c-2.43 2.43-6.178 3.138-10.325 2.253-4.144-.885-8.645-3.356-12.507-7.218-3.862-3.861-6.333-8.363-7.218-12.507-.885-4.147-.176-7.895 2.253-10.325 2.43-2.43 6.178-3.138 10.325-2.252 4.144.884 8.645 3.355 12.507 7.217 3.862 3.862 6.333 8.363 7.218 12.507.885 4.147.176 7.895-2.253 10.325Z" stroke="#fff" stroke-width=".6"/><path d="M54.435 64.254c-2.43 2.43-6.178 3.138-10.325 2.253-4.144-.885-8.645-3.356-12.507-7.218-3.862-3.861-6.333-8.363-7.218-12.507-.885-4.147-.176-7.895 2.253-10.325 2.43-2.43 6.178-3.138 10.325-2.252 4.144.884 8.645 3.355 12.507 7.217 3.862 3.862 6.333 8.363 7.218 12.507.885 4.147.176 7.895-2.253 10.325Z" stroke="#fff" stroke-width=".6"/><path d="M54.435 64.254c-2.43 2.43-6.178 3.138-10.325 2.253-4.144-.885-8.645-3.356-12.507-7.218-3.862-3.861-6.333-8.363-7.218-12.507-.885-4.147-.176-7.895 2.253-10.325 2.43-2.43 6.178-3.138 10.325-2.252 4.144.884 8.645 3.355 12.507 7.217 3.862 3.862 6.333 8.363 7.218 12.507.885 4.147.176 7.895-2.253 10.325Z" stroke="#fff" stroke-width=".6"/><path d="M51.299 61.118c-1.852 1.852-4.725 2.39-7.928 1.694-3.198-.696-6.682-2.617-9.678-5.613-2.996-2.996-4.917-6.48-5.613-9.679-.696-3.202-.158-6.075 1.694-7.927 1.851-1.852 4.725-2.39 7.927-1.693 3.199.695 6.682 2.617 9.678 5.613 2.996 2.996 4.918 6.48 5.613 9.678.696 3.202.159 6.076-1.693 7.927Z" fill="#080808"/><path d="M51.299 61.118c-1.852 1.852-4.725 2.39-7.928 1.694-3.198-.696-6.682-2.617-9.678-5.613-2.996-2.996-4.917-6.48-5.613-9.679-.696-3.202-.158-6.075 1.694-7.927 1.851-1.852 4.725-2.39 7.927-1.693 3.199.695 6.682 2.617 9.678 5.613 2.996 2.996 4.918 6.48 5.613 9.678.696 3.202.159 6.076-1.693 7.927Z" stroke="#fff" stroke-width=".6"/><path d="M51.299 61.118c-1.852 1.852-4.725 2.39-7.928 1.694-3.198-.696-6.682-2.617-9.678-5.613-2.996-2.996-4.917-6.48-5.613-9.679-.696-3.202-.158-6.075 1.694-7.927 1.851-1.852 4.725-2.39 7.927-1.693 3.199.695 6.682 2.617 9.678 5.613 2.996 2.996 4.918 6.48 5.613 9.678.696 3.202.159 6.076-1.693 7.927Z" stroke="#fff" stroke-width=".6"/><path d="M51.299 61.118c-1.852 1.852-4.725 2.39-7.928 1.694-3.198-.696-6.682-2.617-9.678-5.613-2.996-2.996-4.917-6.48-5.613-9.679-.696-3.202-.158-6.075 1.694-7.927 1.851-1.852 4.725-2.39 7.927-1.693 3.199.695 6.682 2.617 9.678 5.613 2.996 2.996 4.918 6.48 5.613 9.678.696 3.202.159 6.076-1.693 7.927ZM24.074 45.914l-3.658 3.658m3.658-6.794-4.18 4.18m4.703 1.568-3.658 3.659m4.703-1.568-4.18 4.181m5.225-2.09-4.18 4.18m5.748-1.568-4.18 4.181m5.748-2.613-4.18 4.181" stroke="#fff" stroke-width=".6"/><mask id="b" fill="#fff"><path fill-rule="evenodd" clip-rule="evenodd" d="M64.481 82.7a9.783 9.783 0 0 1-.718-.674c-5.674-5.89-2.907-17.763 6.18-26.517 9.089-8.755 21.056-11.077 26.73-5.186.157.162.307.33.45.5 1.345 1.061 2.755 2.498 4.247 4.375 5.674 5.89 2.907 17.763-6.18 26.517-9.089 8.755-21.056 11.077-26.73 5.186-1.653-1.506-2.965-2.9-3.979-4.201Z"/></mask><path fill-rule="evenodd" clip-rule="evenodd" d="M64.481 82.7a9.783 9.783 0 0 1-.718-.674c-5.674-5.89-2.907-17.763 6.18-26.517 9.089-8.755 21.056-11.077 26.73-5.186.157.162.307.33.45.5 1.345 1.061 2.755 2.498 4.247 4.375 5.674 5.89 2.907 17.763-6.18 26.517-9.089 8.755-21.056 11.077-26.73 5.186-1.653-1.506-2.965-2.9-3.979-4.201Z" fill="#080808"/><path d="m64.481 82.7.444-.524.055.046.043.056-.542.422Zm32.643-31.876-.426.54-.055-.044-.046-.055.527-.441Zm4.246 4.374-.495.477-.022-.024-.021-.025.538-.428ZM68.46 86.901l.463-.507.016.015.016.016-.495.476Zm-4.202-5.352c.213.222.436.43.667.627l-.888 1.048a10.469 10.469 0 0 1-.769-.722l.99-.953Zm6.162-25.545c-4.462 4.299-7.35 9.342-8.434 13.993-1.086 4.66-.35 8.83 2.272 11.552l-.99.953c-3.052-3.168-3.77-7.879-2.62-12.816 1.153-4.946 4.194-10.216 8.82-14.672l.952.99Zm25.758-5.205c-2.622-2.721-6.762-3.612-11.459-2.7-4.688.91-9.836 3.606-14.299 7.905l-.953-.99c4.625-4.455 10.005-7.297 14.99-8.264 4.978-.966 9.658-.072 12.71 3.096l-.989.953Zm.42.466a8.997 8.997 0 0 0-.42-.466l.99-.953c.167.174.328.353.482.537l-1.053.882Zm4.234 4.36c-1.468-1.847-2.841-3.242-4.134-4.262l.851-1.078c1.396 1.1 2.843 2.58 4.359 4.486l-1.076.855Zm-6.12 25.595c4.463-4.299 7.35-9.342 8.434-13.993 1.087-4.66.351-8.83-2.271-11.552l.99-.953c3.052 3.168 3.771 7.879 2.62 12.817-1.153 4.945-4.194 10.215-8.82 14.67l-.952-.989Zm-25.757 5.205c2.621 2.721 6.762 3.612 11.459 2.7 4.688-.91 9.836-3.606 14.299-7.905l.953.99c-4.625 4.456-10.005 7.297-14.99 8.265-4.978.965-9.658.072-12.71-3.097l.989-.953Zm-3.932-4.147c.984 1.263 2.268 2.629 3.9 4.115l-.926 1.016c-1.674-1.525-3.014-2.948-4.058-4.287l1.084-.844Z" fill="#fff" mask="url(#b)"/><path d="m64.481 82.7.444-.524.055.046.043.056-.542.422Zm32.643-31.876-.426.54-.055-.044-.046-.055.527-.441Zm4.246 4.374-.495.477-.022-.024-.021-.025.538-.428ZM68.46 86.901l.463-.507.016.015.016.016-.495.476Zm-4.202-5.352c.213.222.436.43.667.627l-.888 1.048a10.469 10.469 0 0 1-.769-.722l.99-.953Zm6.162-25.545c-4.462 4.299-7.35 9.342-8.434 13.993-1.086 4.66-.35 8.83 2.272 11.552l-.99.953c-3.052-3.168-3.77-7.879-2.62-12.816 1.153-4.946 4.194-10.216 8.82-14.672l.952.99Zm25.758-5.205c-2.622-2.721-6.762-3.612-11.459-2.7-4.688.91-9.836 3.606-14.299 7.905l-.953-.99c4.625-4.455 10.005-7.297 14.99-8.264 4.978-.966 9.658-.072 12.71 3.096l-.989.953Zm.42.466a8.997 8.997 0 0 0-.42-.466l.99-.953c.167.174.328.353.482.537l-1.053.882Zm4.234 4.36c-1.468-1.847-2.841-3.242-4.134-4.262l.851-1.078c1.396 1.1 2.843 2.58 4.359 4.486l-1.076.855Zm-6.12 25.595c4.463-4.299 7.35-9.342 8.434-13.993 1.087-4.66.351-8.83-2.271-11.552l.99-.953c3.052 3.168 3.771 7.879 2.62 12.817-1.153 4.945-4.194 10.215-8.82 14.67l-.952-.989Zm-25.757 5.205c2.621 2.721 6.762 3.612 11.459 2.7 4.688-.91 9.836-3.606 14.299-7.905l.953.99c-4.625 4.456-10.005 7.297-14.99 8.265-4.978.965-9.658.072-12.71-3.097l.989-.953Zm-3.932-4.147c.984 1.263 2.268 2.629 3.9 4.115l-.926 1.016c-1.674-1.525-3.014-2.948-4.058-4.287l1.084-.844Z" fill="#fff" mask="url(#b)"/><path d="m64.481 82.7.444-.524.055.046.043.056-.542.422Zm32.643-31.876-.426.54-.055-.044-.046-.055.527-.441Zm4.246 4.374-.495.477-.022-.024-.021-.025.538-.428ZM68.46 86.901l.463-.507.016.015.016.016-.495.476Zm-4.202-5.352c.213.222.436.43.667.627l-.888 1.048a10.469 10.469 0 0 1-.769-.722l.99-.953Zm6.162-25.545c-4.462 4.299-7.35 9.342-8.434 13.993-1.086 4.66-.35 8.83 2.272 11.552l-.99.953c-3.052-3.168-3.77-7.879-2.62-12.816 1.153-4.946 4.194-10.216 8.82-14.672l.952.99Zm25.758-5.205c-2.622-2.721-6.762-3.612-11.459-2.7-4.688.91-9.836 3.606-14.299 7.905l-.953-.99c4.625-4.455 10.005-7.297 14.99-8.264 4.978-.966 9.658-.072 12.71 3.096l-.989.953Zm.42.466a8.997 8.997 0 0 0-.42-.466l.99-.953c.167.174.328.353.482.537l-1.053.882Zm4.234 4.36c-1.468-1.847-2.841-3.242-4.134-4.262l.851-1.078c1.396 1.1 2.843 2.58 4.359 4.486l-1.076.855Zm-6.12 25.595c4.463-4.299 7.35-9.342 8.434-13.993 1.087-4.66.351-8.83-2.271-11.552l.99-.953c3.052 3.168 3.771 7.879 2.62 12.817-1.153 4.945-4.194 10.215-8.82 14.67l-.952-.989Zm-25.757 5.205c2.621 2.721 6.762 3.612 11.459 2.7 4.688-.91 9.836-3.606 14.299-7.905l.953.99c-4.625 4.456-10.005 7.297-14.99 8.265-4.978.965-9.658.072-12.71-3.097l.989-.953Zm-3.932-4.147c.984 1.263 2.268 2.629 3.9 4.115l-.926 1.016c-1.674-1.525-3.014-2.948-4.058-4.287l1.084-.844Z" fill="#fff" mask="url(#b)"/><path d="M64.01 81.787c2.73 2.834 7.005 3.725 11.772 2.8 4.763-.924 9.969-3.657 14.472-7.995s7.428-9.438 8.53-14.163c1.102-4.729.371-9.035-2.358-11.868-2.73-2.834-7.005-3.725-11.772-2.8-4.763.924-9.969 3.657-14.472 7.995s-7.429 9.438-8.53 14.163c-1.102 4.73-.371 9.035 2.358 11.868Z" fill="#080808"/><path d="M64.01 81.787c2.73 2.834 7.005 3.725 11.772 2.8 4.763-.924 9.969-3.657 14.472-7.995s7.428-9.438 8.53-14.163c1.102-4.729.371-9.035-2.358-11.868-2.73-2.834-7.005-3.725-11.772-2.8-4.763.924-9.969 3.657-14.472 7.995s-7.429 9.438-8.53 14.163c-1.102 4.73-.371 9.035 2.358 11.868Z" stroke="#fff" stroke-width=".687"/><path d="M64.01 81.787c2.73 2.834 7.005 3.725 11.772 2.8 4.763-.924 9.969-3.657 14.472-7.995s7.428-9.438 8.53-14.163c1.102-4.729.371-9.035-2.358-11.868-2.73-2.834-7.005-3.725-11.772-2.8-4.763.924-9.969 3.657-14.472 7.995s-7.429 9.438-8.53 14.163c-1.102 4.73-.371 9.035 2.358 11.868Z" stroke="#fff" stroke-width=".687"/><path d="M64.01 81.787c2.73 2.834 7.005 3.725 11.772 2.8 4.763-.924 9.969-3.657 14.472-7.995s7.428-9.438 8.53-14.163c1.102-4.729.371-9.035-2.358-11.868-2.73-2.834-7.005-3.725-11.772-2.8-4.763.924-9.969 3.657-14.472 7.995s-7.429 9.438-8.53 14.163c-1.102 4.73-.371 9.035 2.358 11.868Z" stroke="#fff" stroke-width=".687"/><ellipse cx="17.771" cy="11.424" rx="17.771" ry="11.424" transform="scale(-1 1) rotate(43.93 -99.1 -82.681)" fill="#226DFF"/><path d="m99.16 61.44 4.109 4.267m-4.043-7.855 4.697 4.875m-5.419 1.693 4.11 4.267m-5.351-1.895 4.697 4.876m-5.938-2.505 4.697 4.875m-6.548-1.918 4.697 4.876m-7.525-2.114 4.697 4.875" stroke="#fff" stroke-width=".687"/></g></svg>