<svg width="58" height="58" viewBox="0 0 58 58" fill="none" xmlns="http://www.w3.org/2000/svg">
    <path d="M38 23V22.75C38 19.5744 35.4256 17 32.25 17H26C22.6863 17 20 19.6863 20 23C20 26.3137 22.6863 29 26 29H32C35.3137 29 38 31.6863 38 35C38 38.3137 35.3137 41 32 41H25.875C22.6303 41 20 38.3697 20 35.125V35M29 45.5V12.5M56 29C56 43.9117 43.9117 56 29 56C14.0883 56 2 43.9117 2 29C2 14.0883 14.0883 2 29 2C43.9117 2 56 14.0883 56 29Z" stroke="url(#paint0_linear_1302_3486)" style="" stroke-width="2.6" stroke-linecap="round" stroke-linejoin="round"/>
    <defs>
    <linearGradient id="paint0_linear_1302_3486" x1="-3.1" y1="24.5" x2="60.5" y2="34.4" gradientUnits="userSpaceOnUse">
    <stop stop-color="#0F302E" style="stop-color:#0F302E;stop-color:color(display-p3 0.0577 0.1876 0.1790);stop-opacity:1;"/>
    <stop offset="1" stop-color="#449A94" style="stop-color:#449A94;stop-color:color(display-p3 0.2678 0.6033 0.5809);stop-opacity:1;"/>
    </linearGradient>
    </defs>
    </svg>
    