<svg width="16" height="17" fill="none" xmlns="http://www.w3.org/2000/svg" viewBox="0 0 16 17"><g clip-path="url(#a)"><path d="M6.42.92c-.245.785-.913 2.195-2.73 4.065C.556 8.215.14 13.418 4.956 15.976c.395.21.725.081.973-.178.82-.856 1.176-2.112 1.07-3.767-.03-.456.173-.575.576-.263 1.142.884 1.887 2.246 1.887 3.71 0 .498.2.762.664.672 3.07-.596 6.812-4.998 2.78-11.445-.242-.328-.598-.328-.592.123a6.521 6.521 0 0 1-.19 1.643c-.09.373-.442.368-.525 0-.502-2.24-1.9-4.143-4.192-5.714-.619-.423-.844-.293-.987.164V.92Z" fill="#FF4B4B"/></g><defs><clipPath id="a"><path fill="#fff" transform="translate(0 .5)" d="M0 0h16v16H0z"/></clipPath></defs></svg>