<svg width="92" height="9" fill="none" xmlns="http://www.w3.org/2000/svg" viewBox="0 0 92 9"><path d="M91.854 4.854a.5.5 0 0 0 0-.708L88.672.964a.5.5 0 1 0-.707.708L90.793 4.5l-2.829 2.828a.5.5 0 1 0 .708.708l3.182-3.182ZM0 5h.995V4H0v1Zm2.984 0h1.989V4h-1.99v1Zm3.978 0h1.99V4h-1.99v1Zm3.978 0h1.99V4h-1.99v1Zm3.979 0h1.989V4h-1.99v1Zm3.978 0h1.989V4h-1.99v1Zm3.978 0h1.99V4h-1.99v1Zm3.978 0h1.99V4h-1.99v1Zm3.978 0h1.99V4h-1.99v1Zm3.979 0h1.989V4h-1.99v1Zm3.978 0h1.99V4h-1.99v1Zm3.978 0h1.99V4h-1.99v1Zm3.979 0h1.989V4h-1.99v1Zm3.978 0h1.989V4h-1.99v1ZM54.7 5h1.99V4H54.7v1Zm3.978 0h1.99V4h-1.99v1Zm3.979 0h1.989V4h-1.99v1Zm3.978 0h1.989V4h-1.99v1Zm3.978 0h1.99V4h-1.99v1Zm3.978 0h1.99V4h-1.99v1Zm3.979 0h1.989V4h-1.99v1Zm3.978 0h1.989V4h-1.99v1Zm3.978 0h1.99V4h-1.99v1Zm3.978 0h.995V4h-.995v1Z" fill="#fff"/></svg>