<svg width="57" height="57" fill="none" xmlns="http://www.w3.org/2000/svg" viewBox="0 0 57 57"><rect x=".324" y="7.068" width="50.269" height="50.269" rx="25.134" transform="rotate(-7.71 .324 7.068)" fill="#0052F2"/><path fill-rule="evenodd" clip-rule="evenodd" d="M21.284 39.565a10.186 10.186 0 0 0 4.156 3.32 9.786 9.786 0 0 0 5.197.72 9.786 9.786 0 0 0 4.818-2.076 10.185 10.185 0 0 0 3.124-4.305 10.78 10.78 0 0 0 .649-5.393 10.768 10.768 0 0 0-2.06-5.027l-9.466-12.716a1.228 1.228 0 0 0-.5-.4 1.18 1.18 0 0 0-1.207.163 1.229 1.229 0 0 0-.377.519l-5.744 14.776a10.767 10.767 0 0 0-.649 5.393 10.768 10.768 0 0 0 2.06 5.026Zm4.12-18.507 1.224-3.15a.614.614 0 0 1 .188-.26.59.59 0 0 1 .854.119l7.764 10.43a8.448 8.448 0 0 1 1.547 6.576 7.296 7.296 0 0 0-.466-1.05c-1.17-2.153-3.355-3.64-6.497-4.422-2.16-.534-3.63-1.55-4.371-3.02-.954-1.896-.532-4.161-.244-5.223Zm-2.09 5.372-1.398 3.598a8.417 8.417 0 0 0-.507 4.215 8.416 8.416 0 0 0 1.61 3.93 8.002 8.002 0 0 0 2.611 2.282 7.714 7.714 0 0 0 3.297.933 7.607 7.607 0 0 0 3.358-.595 7.758 7.758 0 0 0 2.783-2.01 5.848 5.848 0 0 0-.489-3.976c-.855-1.553-2.555-2.656-5.054-3.278-2.825-.698-4.79-2.119-5.842-4.221a7.202 7.202 0 0 1-.368-.878Z" fill="#fff"/></svg>