<svg width="54" height="54" fill="none" xmlns="http://www.w3.org/2000/svg" viewBox="0 0 54 54"><rect x="3.116" y=".741" width="50.269" height="50.269" rx="25.134" transform="rotate(2.856 3.116 .741)" fill="#02DFA3"/><path fill-rule="evenodd" clip-rule="evenodd" d="M30.12 28.456c-.177-.007-1.09-.058-3.114-.293a68.36 68.36 0 0 1-3.146-.432c-6.188-.994-10.706-2.615-10.556-3.912.15-1.296 4.919-1.84 11.171-1.397l-.49 4.23c.404.077 1.56.28 3.17.467 1.932.224 2.909.255 3.084.26l.49-4.23c6.176.996 10.683 2.615 10.533 3.909-.15 1.293-4.906 1.84-11.147 1.396l.006.002Zm.666-5.744.438-3.785 8.663 1.003.669-5.773-23.586-2.732-.669 5.773 8.662 1.003-.439 3.785c-7.077-.492-12.533.289-12.726 1.96-.194 1.671 4.939 3.677 11.941 4.818l-1.405 12.13 6.26.726L30 29.484c7.061.49 12.508-.29 12.702-1.96.193-1.67-4.927-3.675-11.917-4.813v.001Z" fill="#fff"/></svg>