<svg width="24" height="24" fill="none" xmlns="http://www.w3.org/2000/svg" viewBox="0 0 24 24"><rect width="24" height="24" rx="12" fill="#fff" fill-opacity=".05"/><path fill-rule="evenodd" clip-rule="evenodd" d="m13.07 8.876-5.162 2.119c-.908.353-.376.684-.376.684s.775.265 1.44.463c.664.199 1.019-.022 1.019-.022l3.124-2.096c1.107-.75.841-.132.576.132a84.322 84.322 0 0 1-2.327 2.207c-.354.309-.177.574-.022.706.451.38 1.513 1.07 1.995 1.385.134.087.224.145.243.16.11.088.731.485 1.108.397.376-.088.42-.596.42-.596l.554-3.464.145-.94c.12-.77.216-1.397.232-1.62.066-.75-.731-.441-.731-.441s-1.728.706-2.238.926Z" fill="#fff"/></svg>