<svg width="84" height="84" fill="none" xmlns="http://www.w3.org/2000/svg" viewBox="0 0 84 84"><path d="M47.92 53.48s3.852 3.06 6.87 3.158c3.02.099-1.249 4.934-4.269 3.651-3.02-1.282-5.621-6.414-5.621-6.414" fill="#fff"/><path d="M47.92 53.48s3.852 3.06 6.87 3.158c3.02.099-1.249 4.934-4.269 3.651-3.02-1.282-5.621-6.414-5.621-6.414" stroke="color(display-p3 .1059 .3294 .9882)" stroke-width="1.563" stroke-miterlimit="10" stroke-linecap="round" stroke-linejoin="round"/><path d="M52.708 14.896S51.042 2.067 41.048 3.054c-9.994.987-23.112 20.92-22.07 39.374" fill="#fff"/><path d="M52.708 14.896S51.042 2.067 41.048 3.054c-9.994.987-23.112 20.92-22.07 39.374" stroke="color(display-p3 .1059 .3294 .9882)" stroke-width="1.563" stroke-miterlimit="10" stroke-linecap="round" stroke-linejoin="round"/><path d="M28.284 24.118c-.79-7.731 2.54-13.913 3.865-16.024l-3.865 16.024Z" fill="#fff"/><path d="M28.284 24.118c-.79-7.731 2.54-13.913 3.865-16.024" stroke="color(display-p3 .1059 .3294 .9882)" stroke-width="1.563" stroke-miterlimit="10" stroke-linejoin="round"/><path d="M57.81 16.573S37.505 6.974 23.662 30.487c-11.838 20.106.788 36.09 10.298 39.4 0 0-14.358 2.046-10.298 9.546 4.06 7.5 14.055-7.993 14.055-7.993s12.181.592 11.66-2.27c-.52-2.862-2.29-7.401-11.765-.69 0 0-3.506-5.007-.295-9.603 1.175-1.683 3.187-2.655 5.315-2.683 2.255-.03 6.21-.712 10.135-4.437" fill="#fff"/><path d="M57.81 16.573S37.505 6.974 23.662 30.487c-11.838 20.106.788 36.09 10.298 39.4 0 0-14.358 2.046-10.298 9.546 4.06 7.5 14.055-7.993 14.055-7.993s12.181.592 11.66-2.27c-.52-2.862-2.29-7.401-11.765-.69 0 0-3.506-5.007-.295-9.603 1.175-1.683 3.187-2.655 5.315-2.683 2.255-.03 6.21-.712 10.135-4.437" stroke="color(display-p3 .1059 .3294 .9882)" stroke-width="1.563" stroke-miterlimit="10" stroke-linecap="round" stroke-linejoin="round"/><path d="M64.578 34.632c3.748-6.612.422-17.436-5.414-17.862-5.414-.394-7.809 4.737-7.809 4.737-3.048-4.043-7.213-6.562-12.389-3.651-9.474 5.329-1.562 17.466-1.562 17.466l12.145 6.365 15.029-7.055Z" fill="#fff" stroke="color(display-p3 .1059 .3294 .9882)" stroke-width="1.563" stroke-miterlimit="10" stroke-linecap="round" stroke-linejoin="round"/><path d="M26.705 34.017c1.163-1.101 2.933-1.383 4.41-.699 3.3 1.529 9.94 3.857 19.096 3.385 7.695-.396 13.136-1.536 16.377-2.44 2.1-.583 4.328.422 5.166 2.337.515 1.176.12 2.39-.26 3.61-1.398 4.486-8.072 12.094-20.866 11.591-14.083-.553-22.205-6.189-24.362-12.433-.607-1.753-.937-4.045.44-5.35Z" fill="#fff" stroke="color(display-p3 .1059 .3294 .9882)" stroke-width="1.563" stroke-miterlimit="10" stroke-linecap="round" stroke-linejoin="round"/><path d="M66.452 40.355s-3.853 2.96-14.472 3.355c-10.62.395-19.364-4.638-19.364-4.638s4.893 8.487 17.49 8.487c12.599 0 16.346-7.204 16.346-7.204Z" stroke="color(display-p3 .1059 .3294 .9882)" stroke-width="1.563" stroke-miterlimit="10" stroke-linecap="round" stroke-linejoin="round"/><path d="M44.068 32.856c1.84 0 3.332-1.922 3.332-4.293 0-2.37-1.492-4.293-3.332-4.293-1.84 0-3.331 1.922-3.331 4.293 0 2.37 1.491 4.293 3.331 4.293Zm13.638 0c1.84 0 3.332-1.922 3.332-4.293 0-2.37-1.492-4.293-3.332-4.293-1.84 0-3.331 1.922-3.331 4.293 0 2.37 1.491 4.293 3.331 4.293Z" fill="color(display-p3 .1059 .3294 .9882)"/><path d="M33.032 37.395s-.313 1.875-2.29 3.06m34.877-1.679s1.562 1.382 2.499 1.777" stroke="color(display-p3 .1059 .3294 .9882)" stroke-width="1.563" stroke-miterlimit="10" stroke-linecap="round" stroke-linejoin="round"/><path d="M43.495 29.106c.604 0 1.093-.509 1.093-1.135 0-.627-.49-1.135-1.093-1.135-.604 0-1.093.508-1.093 1.135s.49 1.135 1.093 1.135Zm13.222 0c.603 0 1.093-.509 1.093-1.135 0-.627-.49-1.135-1.093-1.135-.604 0-1.094.508-1.094 1.135s.49 1.135 1.094 1.135ZM24.703 42.23s-3.228-3.75-5.622-13.223c-1.014-4.009-6.835-6.431-7.08 6.316-.104 5.427 5.101 7.917 10.596 9.707" fill="#fff"/><path d="M24.703 42.23s-3.228-3.75-5.622-13.223c-1.014-4.009-6.835-6.431-7.08 6.316-.104 5.427 5.101 7.917 10.596 9.707" stroke="color(display-p3 .1059 .3294 .9882)" stroke-width="1.563" stroke-miterlimit="10" stroke-linecap="round" stroke-linejoin="round"/></svg>