<svg width="24" height="24" viewBox="0 0 24 24" fill="none" xmlns="http://www.w3.org/2000/svg">
<path d="M11.4731 5.44482C11.0664 6.23549 10.2124 8.23234 10.0498 9.8927" stroke="black" style="stroke:black;stroke-opacity:1;" stroke-width="0.423022" stroke-linecap="round"/>
<path d="M14.7639 7.16397C14.7639 7.16397 14.2691 3.79218 11.3237 5.46633C8.37844 7.1402 7.8252 12.9172 7.8252 12.9172" stroke="black" style="stroke:black;stroke-opacity:1;" stroke-width="0.419585" stroke-miterlimit="10"/>
<path d="M18.7331 15.3536C18.4396 15.7774 17.6926 16.514 17.1917 16.8718C16.7427 17.1927 16.1996 17.4727 15.5431 17.686C15.2402 17.7847 14.9132 17.8688 14.5601 17.9364C13.0368 18.2281 11.7748 18.1534 10.7501 17.8988C10.4099 19.2892 7.92556 19.8529 7.92556 19.0263C7.92556 18.6502 8.32023 17.8308 8.75042 17.0493C8.08226 16.6251 7.6336 16.1683 7.38001 15.868C7.29519 15.7677 7.09643 15.8211 7.07185 15.9498C6.78345 17.4625 5.51078 18.7349 4.95159 18.0117C4.48759 17.4115 5.17081 16.333 5.52428 15.851C5.59404 15.7559 5.51945 15.6121 5.40167 15.6025C3.45772 15.4434 3.78647 12.7722 4.87544 12.4503C5.7712 12.1854 6.47999 13.5798 6.74523 14.197C6.79141 14.3044 6.94953 14.3158 7.00849 14.215C7.17827 13.9248 7.48713 13.4179 7.91249 12.8069C8.90712 11.3777 10.5389 9.37893 12.5147 8.25319C13.1104 7.88534 14.395 7.25062 15.5434 7.31794C16.6917 7.38526 16.9925 7.62045 17.6457 7.97571M12.41 12.5965C11.1484 11.3996 10.9137 9.65118 12.5461 8.41823C12.77 8.28614 12.9985 8.16621 13.2313 8.06057C13.2317 8.06028 13.2323 8.06014 13.233 8.06C14.5674 7.67363 15.4657 9.20823 15.4657 9.20823C15.4657 9.20823 15.9419 8.08503 16.9921 7.97557C17.1432 7.95987 17.3065 7.96511 17.4818 7.99763C18.4173 8.17187 19.0552 9.83036 18.9289 11.2465V11.2473C18.9052 11.5136 18.7739 12.1285 18.6708 12.4493" stroke="black" style="stroke:black;stroke-opacity:1;" stroke-width="0.419585"/>
<path d="M9.82654 15.4077C9.82654 15.4077 9.28466 16.2524 8.79189 17.149C8.38046 17.8973 8.00293 18.682 8.00293 19.0421C8.00293 19.8338 10.3794 19.294 10.7049 17.9626C11.0305 16.6313 10.7049 15.4077 10.7049 15.4077" stroke="black" style="stroke:black;stroke-opacity:1;" stroke-width="0.419585" stroke-miterlimit="10" stroke-linecap="round" stroke-linejoin="round"/>
<path d="M15.3371 17.8816C15.3371 17.8816 13.9848 19.3911 15.7985 19.2844C17.6121 19.1776 17.2803 17.5384 17.1285 17.1548" stroke="black" style="stroke:black;stroke-opacity:1;" stroke-width="0.419585" stroke-miterlimit="10" stroke-linecap="round"/>
<path d="M18.3134 15.5965C17.8256 15.7609 17.2413 15.8898 16.5444 15.9668C11.8705 16.4845 8.95069 13.7109 9.48958 12.4178C9.75868 11.772 10.6123 12.1221 10.6123 12.1221C10.6123 12.1221 11.4088 12.8307 15.0534 12.9278C18.8856 12.9278 19.3771 11.906 19.9411 12.4178C20.505 12.9299 20.5989 14.423 18.3134 15.5965Z" stroke="black" style="stroke:black;stroke-opacity:1;" stroke-width="0.419585" stroke-miterlimit="10"/>
<path d="M11.2061 13.5396C11.2061 13.5396 12.8054 14.5321 15.397 14.607C18.0352 14.607 19.2122 13.5396 19.2122 13.5396" stroke="black" style="stroke:black;stroke-opacity:1;" stroke-width="0.419585" stroke-miterlimit="10" stroke-linecap="round"/>
<path fill-rule="evenodd" clip-rule="evenodd" d="M13.7391 12C14.1473 12 14.4783 11.5523 14.4783 11C14.4783 10.4477 14.1473 10 13.7391 10C13.3309 10 13 10.4477 13 11C13 11.5523 13.3309 12 13.7391 12ZM13.3913 11.4782C13.5114 11.4782 13.6087 11.3808 13.6087 11.2608C13.6087 11.1407 13.5114 11.0434 13.3913 11.0434C13.2712 11.0434 13.1739 11.1407 13.1739 11.2608C13.1739 11.3808 13.2712 11.4782 13.3913 11.4782Z" fill="black" style="fill:black;fill-opacity:1;"/>
<path fill-rule="evenodd" clip-rule="evenodd" d="M16.7391 12C17.1473 12 17.4783 11.5523 17.4783 11C17.4783 10.4477 17.1473 10 16.7391 10C16.3309 10 16 10.4477 16 11C16 11.5523 16.3309 12 16.7391 12ZM16.3913 11.4782C16.5114 11.4782 16.6087 11.3808 16.6087 11.2608C16.6087 11.1407 16.5114 11.0434 16.3913 11.0434C16.2712 11.0434 16.1739 11.1407 16.1739 11.2608C16.1739 11.3808 16.2712 11.4782 16.3913 11.4782Z" fill="black" style="fill:black;fill-opacity:1;"/>
</svg>
