<svg width="24" height="22" fill="none" xmlns="http://www.w3.org/2000/svg" viewBox="0 0 24 22"><path d="M10.293 4.386c-.823-1.902 1.654-2.076 2.02-2.425v3.762l-1.818 2.3c-.133-.698.265-2.561-.202-3.637Z" fill="#000"/><path d="M8.44 6.001c.44-2.222 1.653-2.682 2.02-3.03v4.368L8.642 9.638C8.508 8.94 8.212 7.152 8.44 6Z" fill="#000"/><path fill-rule="evenodd" clip-rule="evenodd" d="M9.044 7.785c-1.244 1.263-2.284 2.631-3.05 3.75 0 0 .857-7.482 4.842-9.845.074-.044.147-.085.219-.125-.15.199-.322.444-.518.745-1.21 1.854-1.553 3.322-1.493 5.475Zm3.044-6.65c.015.078.023.164.03.25-.721.51-2.802 2.828-2.624 5.958.862-.824 1.812-1.583 2.828-2.171a3.06 3.06 0 0 1 .98-.503h.003a8.052 8.052 0 0 1 2.04-.616s-.41-3.692-3.257-2.918Z" fill="#fff"/><path d="M15.345 3.789s-.525-4.462-4.51-2.099c-3.984 2.363-4.841 9.844-4.841 9.844" stroke="#000" stroke-width=".475" stroke-miterlimit="10" stroke-linecap="round" stroke-linejoin="round"/><path d="M10.08 19.22c-.462 1.964-3.83 2.76-3.83 1.592 0-.53.535-1.688 1.119-2.792-1.523-1.006-2.204-2.143-2.204-2.143-.14 2.376-2.12 4.617-2.946 3.502-.827-1.114 1.034-3.396 1.034-3.396-3.102.16-2.689-3.98-1.138-4.458 1.551-.478 2.688 2.866 2.688 2.866s.517-.997 1.43-2.362c1.348-2.019 3.56-4.842 6.239-6.431-2.303 1.75-1.729 4.514.05 6.213-1.547-.4-2.446-.71-2.446-.71-.004 0-.776 0-1.138.928-.361.929 2.826 5.334 9.098 4.59.935-.11 1.72-.295 2.374-.531a6.724 6.724 0 0 1-1.598 1.682 8 8 0 0 1-2.235 1.15c-.41.139-.854.258-1.332.353-2.065.412-3.776.307-5.165-.053Z" fill="#fff"/><path d="M5.974 11.856a31.865 31.865 0 0 0-1.125 1.81 8.695 8.695 0 0 0-.544-1.05c-.247-.402-.559-.812-.928-1.092-.375-.285-.84-.454-1.353-.296-.505.155-.875.591-1.104 1.088a3.467 3.467 0 0 0-.29 1.703c.05.59.26 1.183.699 1.621.33.332.773.555 1.328.63a8.017 8.017 0 0 0-.508.852c-.188.37-.36.792-.425 1.208-.065.417-.03.864.245 1.235.137.185.312.316.517.379.204.062.413.05.61-.01.386-.114.763-.414 1.09-.795.52-.607.98-1.499 1.184-2.47l.093.107c.337.384.833.872 1.502 1.345-.247.477-.48.958-.66 1.39a7.094 7.094 0 0 0-.26.708 2.19 2.19 0 0 0-.105.593c0 .23.086.428.245.576.15.139.346.214.543.25.392.071.884.006 1.362-.153.86-.285 1.83-.928 2.2-1.894 1.382.313 3.046.38 5.015-.013.492-.098.948-.22 1.372-.364a8.31 8.31 0 0 0 2.32-1.195 7.04 7.04 0 0 0 1.672-1.759l.52-.783-.884.319c-.63.226-1.39.407-2.305.515-3.054.362-5.34-.53-6.817-1.61-.74-.543-1.274-1.13-1.597-1.628a2.708 2.708 0 0 1-.321-.642c-.058-.186-.044-.272-.037-.29.235-.602.67-.708.808-.726l.108.036a44.23 44.23 0 0 0 2.3.661l1.156.299-.863-.825c-.845-.806-1.389-1.853-1.46-2.884-.071-1.017.314-2.045 1.383-2.857l-.347-.515c-2.74 1.627-4.984 4.498-6.339 6.526Zm0 0 .258.173-.258-.173Z" stroke="#000" stroke-width=".622"/><ellipse cx="16.758" cy="6.204" rx="2.828" ry="1.818" fill="#fff"/><path d="M19.046 9.234c.323 0 .585.271.585.606a.596.596 0 0 1-.585.606.596.596 0 0 1-.584-.606c0-.335.261-.606.584-.606Zm-.38 8.89c.203.557.706 3.07-1.718 3.225-2.425.155-.466-2.191-.466-2.191a8.063 8.063 0 0 0 2.184-1.035Z" fill="#fff"/><path d="M12.514 5.813c.304-.181.614-.346.93-.491l.002-.001c1.809-.53 3.027 1.578 3.027 1.578s.645-1.544 2.068-1.694c.205-.022.427-.015.665.03 1.268.24 2.133 2.518 1.962 4.464V9.7c-.084.951-.581 2.448-1.234 2.962-.827.213-1.876.305-3.213.069a53.559 53.559 0 0 1-4.158-.904c-1.71-1.645-2.262-4.32-.049-6.014Z" fill="#fff"/><path d="M7.233 18.078c-1.49-1.011-2.157-2.153-2.157-2.153-.138 2.387-2.364 4.254-2.885 3.519-.37-1.378 1.012-3.413 1.012-3.413-3.036.16-2.63-3.998-1.113-4.478 1.518-.48 2.631 2.879 2.631 2.879s.507-1.002 1.4-2.373c1.32-2.028 3.485-4.864 6.107-6.461" stroke="#000" stroke-width=".622" stroke-miterlimit="10" stroke-linecap="round" stroke-linejoin="round"/><path d="M13.397 5.193a6.582 6.582 0 0 1 1.922-.713c1.319-.251 2.345.016 3.143.576" stroke="#000" stroke-width=".475" stroke-miterlimit="10" stroke-linecap="round" stroke-linejoin="round"/><path d="M8.88 15.699s-.742 1.193-1.417 2.46c-.563 1.058-1.08 2.167-1.08 2.676 0 1.118 3.253.355 3.699-1.526.445-1.881 0-3.61 0-3.61" stroke="#000" stroke-width=".622" stroke-miterlimit="10" stroke-linecap="round" stroke-linejoin="round"/><path d="M16.482 19.158s-1.959 2.346.466 2.19c2.424-.154 1.921-2.667 1.718-3.224" stroke="#000" stroke-width=".475" stroke-miterlimit="10" stroke-linecap="round" stroke-linejoin="round"/><path d="M19.934 12.87c.653-.529 1.15-2.067 1.234-3.044v-.001c.17-2-.694-4.343-1.962-4.589a2.219 2.219 0 0 0-.664-.03c-1.424.154-2.07 1.74-2.07 1.74s-1.217-2.167-3.026-1.622l-.003.001c-.315.15-.625.319-.928.505-2.214 1.742-1.662 4.49.048 6.181" stroke="#000" stroke-width=".622" stroke-miterlimit="10" stroke-linecap="round" stroke-linejoin="round"/><path d="M12.228 5.597a4.514 4.514 0 0 1 1.169-.404" stroke="#000" stroke-width=".475" stroke-miterlimit="10" stroke-linecap="round" stroke-linejoin="round"/><path d="M20.373 15.894c-.66.232-1.452.414-2.396.523-6.333.732-10.29-3.188-9.56-5.015.366-.913 1.522-.418 1.522-.418s1.08 1.001 6.017 1.138c5.192 0 5.858-1.444 6.623-.72.764.723.891 2.834-2.206 4.492Z" fill="#fff" stroke="#000" stroke-width=".622" stroke-miterlimit="10" stroke-linecap="round" stroke-linejoin="round"/><path d="M10.734 13.035s2.171 1.405 5.69 1.51c3.518.107 4.736-1.062 4.736-1.062" stroke="#000" stroke-width=".475" stroke-miterlimit="10" stroke-linecap="round" stroke-linejoin="round"/><path d="M13.629 6.172c1.106-.215 2.223.831 2.496 2.337.272 1.505-.404 2.9-1.51 3.115-1.107.215-2.224-.83-2.496-2.336-.272-1.506.404-2.9 1.51-3.116Zm5.655.495c1.002.342 1.476 1.686 1.058 3.003-.418 1.316-1.57 2.106-2.571 1.764-1.003-.342-1.476-1.687-1.058-3.003.418-1.316 1.569-2.106 2.57-1.764Z" fill="#fff"/><path d="M14.378 7.785c.602 0 1.09.675 1.09 1.508s-.488 1.508-1.09 1.508c-.602 0-1.09-.675-1.09-1.508s.488-1.508 1.09-1.508Z" fill="#000"/><path d="M13.287 9.67a.37.37 0 0 1 .364-.377c.2 0 .363.169.363.377a.37.37 0 0 1-.363.377.37.37 0 0 1-.364-.377Z" fill="#fff"/><path d="M18.74 7.785c.602 0 1.09.675 1.09 1.508s-.488 1.508-1.09 1.508c-.602 0-1.09-.675-1.09-1.508s.488-1.508 1.09-1.508Z" fill="#000"/><path d="M18.376 9.67a.37.37 0 0 1 .364-.377c.2 0 .363.169.363.377a.37.37 0 0 1-.363.377.37.37 0 0 1-.364-.377Z" fill="#fff"/></svg>