<svg fill="none" xmlns="http://www.w3.org/2000/svg" xmlns:xlink="http://www.w3.org/1999/xlink" viewBox="0 0 1300 1300">
    <rect rx="100" fill="color(display-p3 .0615 .7184 1)" width="100%" height="100%" />
    <rect rx="100" fill="url(#a)" width="100%" height="100%" />
    <rect x="50" y="50" width="1200" height="1200" rx="120" fill="url(#b)" />
    <rect x="50" y="50" width="1200" height="1200" rx="120" fill="url(#c)" />
    <rect x="50" y="50" width="1200" height="1200" rx="120" fill="url(#d)" />
    <mask id="e" style="mask-type:alpha" maskUnits="userSpaceOnUse" x="50" y="50" width="1200" height="1200">
        <rect x="50" y="50" width="1200" height="1200" rx="120" fill="color(display-p3 .5779 .8734 1)" />
    </mask>
    <g mask="url(#e)">
        <rect x="222.092" y="-1078.9" width="1478.69" height="2627.56" rx="120"
            transform="rotate(8.603 222.092 -1078.9)" fill="url(#f)" fill-opacity="1" />
    </g>
    <path
        d="M726.93 1185.61c-2.396 1.95-4.221 4.84-5.476 8.68a20.588 20.588 0 0 0-.996 6.32c0 3.73 1.219 5.6 3.658 5.6 1.241 0 2.525-.51 3.852-1.53 1.328-1.03 2.518-2.36 3.572-3.99 1.068-1.64 1.94-3.59 2.619-5.84.692-2.25 1.039-4.5 1.039-6.75 0-3.18-.563-5.44-1.689-6.78-1.125-1.34-3.015-2.01-5.67-2.01-1.472 0-3.059.16-4.762.48-1.703.31-3.146.67-4.329 1.06-1.169.37-2.222.72-3.16 1.03-.938.32-1.479.48-1.623.48-.534 0-.801-.22-.801-.65 0-.34.353-.79 1.06-1.34.722-.56 1.717-1.15 2.987-1.75 1.27-.62 2.677-1.2 4.221-1.74 3.593-1.24 7.106-1.86 10.541-1.86 6.594 0 11.255 1.92 13.982 5.76 1.601 2.27 2.402 5.07 2.402 8.4 0 2.52-.44 4.9-1.32 7.12-.88 2.21-2.107 4.14-3.68 5.8-1.572 1.66-3.419 3.09-5.54 4.29-4.286 2.41-9.142 3.61-14.567 3.61-10.62 0-15.93-3.63-15.93-10.89 0-2.03.44-3.98 1.32-5.84.88-1.88 2.035-3.5 3.463-4.87a25.189 25.189 0 0 1 4.849-3.64c3.636-2.07 7.286-3.11 10.952-3.11.577 0 .988.1 1.233.32.26.2.39.41.39.63 0 .22-.036.4-.108.56-.058.15-.181.32-.368.52-.188.2-.354.38-.498.52-.361.32-.902.79-1.623 1.41Zm-79.457-3.03-2.554.51c-.317 0-.555-.04-.714-.12-.159-.09-.238-.3-.238-.63 0-.52.649-1.34 1.948-2.47 1.298-1.14 3.124-2.16 5.476-3.05 2.352-.91 4.43-1.37 6.233-1.37 1.818 0 3.059.38 3.723 1.13.664.74.996 1.95.996 3.64 0 .21-.029.58-.087 1.1 5.238-4.21 10.05-6.32 14.437-6.32 2.063 0 3.629.47 4.697 1.41 1.068.93 1.601 2.26 1.601 3.98v.19c4.777-3.72 9.048-5.58 12.814-5.58 2.135 0 3.816.51 5.043 1.52 1.226.99 1.84 2.34 1.84 4.04 0 1.69-.375 3.63-1.126 5.82-.736 2.2-1.544 4.16-2.424 5.89-2.366 4.66-3.55 7.75-3.55 9.27 0 .96.289 1.73.866 2.29.577.55 1.183.88 1.818 1 .635.1 1.046.18 1.234.23.202.05.426.12.671.22.462.17.693.47.693.89 0 1.02-1.119 1.92-3.355 2.68-2.222.77-4.964 1.15-8.225 1.15-4.329 0-6.493-1.61-6.493-4.83 0-1.43.36-3.21 1.082-5.34a54.569 54.569 0 0 1 2.381-5.98c2.294-4.89 3.441-8.16 3.441-9.8 0-.61-.18-1.1-.541-1.47-.346-.38-.895-.57-1.645-.57-1.313 0-2.98.52-5 1.56-.563 2.19-1.652 5.22-3.268 9.07-1.616 3.84-2.771 6.9-3.463 9.2-.693 2.28-1.082 4.24-1.169 5.89-.029.47-.166.87-.411 1.19-.231.31-.534.47-.909.47l-8.788.13c-1.544 0-2.489-.26-2.835-.78-.159-.24-.238-.6-.238-1.08 0-.48.166-1.41.498-2.79.331-1.39.974-3.31 1.926-5.78.967-2.48 1.883-4.64 2.749-6.47 2.164-4.63 3.246-7.52 3.246-8.66 0-1.31-.793-1.97-2.381-1.97-1.587 0-3.491.62-5.714 1.86-.49 1.86-1.406 4.43-2.748 7.71a299.51 299.51 0 0 0-3.485 8.92c-.981 2.68-1.472 4.69-1.472 6.03l.065 1.43c0 .45-.245.8-.736 1.06a3.24 3.24 0 0 1-1.537.39l-8.03.13c-1.601 0-2.575-.27-2.922-.82-.158-.27-.238-.69-.238-1.26 0-.57.123-1.39.368-2.46.246-1.07 1.025-3.16 2.338-6.26 1.327-3.11 2.532-6.01 3.614-8.68 1.097-2.67 1.645-4.43 1.645-5.3 0-.87-.093-1.44-.281-1.73-.188-.29-.476-.43-.866-.43Zm-20.261 6.66c.549 0 .823.43.823 1.28 0 .84-.274 1.56-.823 2.17-.548.6-1.147.93-1.796.97-.635.04-1.299.11-1.991.22-.678.1-1.458.24-2.338.43-.866.17-1.659.41-2.381.71-.721.31-1.392.66-2.013 1.06-1.356.87-2.034 2.05-2.034 3.55 0 1 .245 1.87.736 2.62a5.064 5.064 0 0 0 1.969 1.71c1.559.78 3.283 1.17 5.173 1.17 2.901 0 6.609-.62 11.125-1.86.26-.07.484-.11.671-.11.549 0 .823.28.823.82 0 1.01-1.032 1.99-3.095 2.95-2.049.95-4.553 1.7-7.511 2.25s-5.757.82-8.398.82c-2.626 0-4.978-.17-7.056-.5-2.078-.33-3.917-.83-5.519-1.49-1.602-.68-2.85-1.57-3.744-2.68-.881-1.13-1.321-2.42-1.321-3.88s.433-2.76 1.299-3.92c.88-1.17 2.034-2.12 3.463-2.88 1.428-.76 3.088-1.4 4.978-1.92 3.564-.95 7.496-1.43 11.796-1.43-3.059-.16-5.346-.42-6.861-.78-1.501-.36-2.691-.71-3.571-1.04-.866-.34-1.595-.73-2.186-1.17-1.357-.98-2.035-2.2-2.035-3.68 0-1.47.548-2.82 1.645-4.07 1.111-1.25 2.576-2.28 4.394-3.07 3.766-1.64 8.138-2.47 13.116-2.47 6.768 0 11.414.76 13.939 2.28.548.33.823.82.823 1.47 0 .63-.477 1.69-1.429 3.16-.938 1.47-1.703 2.49-2.294 3.05-.577.56-1.118.84-1.624.84-.49 0-.937-.18-1.341-.54a3.807 3.807 0 0 1-.953-1.34c-1.573-3.53-3.997-5.3-7.272-5.3-1.905 0-3.514.52-4.827 1.56-1.299 1.02-1.948 2.28-1.948 3.76 0 1.47.75 2.74 2.251 3.81 1.515 1.07 3.355 1.6 5.519 1.6l1.818-.13Zm-68.394-6.66-2.554.51c-.318 0-.556-.04-.714-.12-.159-.09-.238-.27-.238-.55 0-.66.671-1.53 2.012-2.61 1.342-1.09 3.175-2.08 5.498-2.99 2.338-.91 4.437-1.37 6.299-1.37 1.875 0 3.21.33 4.004.98.808.65 1.212 1.91 1.212 3.79l-.065.97c2.871-2.22 5.447-3.81 7.727-4.76 2.28-.95 4.509-1.43 6.688-1.43 2.193 0 3.882.46 5.065 1.39 1.183.9 1.775 2.22 1.775 3.96 0 1.77-.837 4.61-2.511 8.52-.693 1.62-1.385 3.22-2.078 4.81-1.674 3.87-2.511 6.38-2.511 7.55 0 2.08 1.032 3.3 3.095 3.66 1.111.19 1.754.4 1.927.63.173.21.259.43.259.65 0 1.02-1.118 1.92-3.354 2.68-2.223.77-4.712 1.15-7.468 1.15-5.425 0-8.138-1.61-8.138-4.83 0-2.25.779-5.21 2.338-8.89.649-1.55 1.298-3.06 1.948-4.53 1.558-3.53 2.337-6 2.337-7.4 0-1.41-1.089-2.12-3.268-2.12-1.27 0-2.698.45-4.286 1.34-.707 2.79-2.229 6.93-4.567 12.42-2.135 5-3.203 8.5-3.203 10.52l.065 1.43c0 .45-.245.8-.736 1.06-.49.26-1.003.39-1.537.39l-8.679.13c-1.602 0-2.576-.27-2.922-.82-.159-.27-.238-.69-.238-1.26 0-.57.123-1.39.368-2.44.245-1.07 1.024-3.15 2.338-6.26 1.327-3.11 2.532-6.01 3.614-8.7 1.097-2.68 1.645-4.45 1.645-5.3 0-.87-.094-1.44-.281-1.73-.188-.29-.476-.43-.866-.43Zm7.238-649.428c3.712 0 6.955.64 9.728 1.92 2.773 1.28 4.907 3.093 6.4 5.44 1.536 2.304 2.304 5.013 2.304 8.128 0 3.072-.768 5.781-2.304 8.128-1.493 2.304-3.627 4.096-6.4 5.376-2.773 1.237-6.016 1.856-9.728 1.856h-6.848v16h-9.28v-46.848h16.128Zm-1.024 22.976c2.901 0 5.227-.619 6.976-1.856 1.749-1.28 2.624-3.157 2.624-5.632 0-2.475-.875-4.352-2.624-5.632-1.749-1.323-4.075-1.984-6.976-1.984h-5.824v15.104h5.824Zm21.23-22.976h37.76v8.256h-14.208V580h-9.344v-38.592h-14.208v-8.256ZM674.161 580h-11.072l-4.864-5.12c-4.352 3.925-9.515 5.888-15.488 5.888-4.821 0-8.725-1.195-11.712-3.584-2.944-2.432-4.416-5.803-4.416-10.112 0-3.541.939-6.421 2.816-8.64 1.877-2.219 4.459-4.16 7.744-5.824-1.664-1.92-2.837-3.627-3.52-5.12a12.36 12.36 0 0 1-.96-4.8c0-2.56.64-4.757 1.92-6.592 1.28-1.835 2.987-3.221 5.12-4.16 2.176-.981 4.565-1.472 7.168-1.472 2.688 0 5.035.491 7.04 1.472s3.541 2.347 4.608 4.096c1.067 1.707 1.6 3.648 1.6 5.824 0 2.901-.917 5.291-2.752 7.168-1.792 1.835-4.352 3.584-7.68 5.248l8 8.512c1.451-3.115 2.432-6.635 2.944-10.56h8.896c-.981 6.357-2.987 11.904-6.016 16.64L674.161 580Zm-32.512-37.248c0 .896.235 1.835.704 2.816.469.939 1.301 2.112 2.496 3.52 2.048-.981 3.605-1.984 4.672-3.008 1.067-1.067 1.6-2.325 1.6-3.776 0-1.237-.427-2.24-1.28-3.008-.811-.811-1.899-1.216-3.264-1.216-1.451 0-2.645.405-3.584 1.216-.896.811-1.344 1.963-1.344 3.456Zm1.984 30.144c3.285 0 6.336-1.237 9.152-3.712l-10.624-11.264c-2.005 1.152-3.563 2.389-4.672 3.712-1.109 1.323-1.664 2.88-1.664 4.672 0 2.091.704 3.712 2.112 4.864 1.451 1.152 3.349 1.728 5.696 1.728Zm51.078-20.544 10.624-19.2h10.048l-16.32 28.416V580h-9.28v-18.496l-17.024-28.352h10.944l11.008 19.2Zm21.551-19.2h37.76v8.256h-14.208V580h-9.344v-38.592h-14.208v-8.256ZM213.004 971.368c4.408 0 8.259.76 11.552 2.28 3.293 1.52 5.827 3.673 7.6 6.46 1.824 2.736 2.736 5.953 2.736 9.652 0 3.648-.912 6.865-2.736 9.652-1.773 2.738-4.307 4.868-7.6 6.388-3.293 1.47-7.144 2.2-11.552 2.2h-8.132v19h-11.02v-55.632h19.152Zm-1.216 27.284c3.445 0 6.207-.735 8.284-2.204 2.077-1.52 3.116-3.749 3.116-6.688 0-2.939-1.039-5.168-3.116-6.688-2.077-1.571-4.839-2.356-8.284-2.356h-6.916v17.936h6.916Zm25.211-27.284h44.84v9.804h-16.872V1027h-11.096v-45.828h-16.872v-9.804Zm492.525 22.8 12.616-22.8h11.932l-19.38 33.742V1027h-11.02v-21.96l-20.216-33.672h12.996l13.072 22.8Zm25.592-22.8h44.84v9.804h-16.872V1027h-11.096v-45.828h-16.872v-9.804Z"
        fill="#fff" />
    <path fill="url(#g)" d="M454 103h391v353H454z" />
    <rect x="108" y="660" width="1084" height="463" rx="85.313" fill="#fff" fill-opacity=".09" />
    <rect x="110.666" y="662.666" width="1078.67" height="457.668" rx="82.647" stroke="color(display-p3 .4527 .7628 1)"
        stroke-width="5.332" />
    <rect x="108" y="660" width="1084" height="463" rx="85.313" fill="#fff" fill-opacity=".09" />
    <rect x="110.666" y="662.666" width="1078.67" height="457.668" rx="82.647"
        stroke="color(display-p3 .1765 .9569 .8667)" stroke-width="5.332" />
    <rect x="108" y="660" width="1084" height="463" rx="85.313" fill="#fff" fill-opacity=".09" />
    <rect x="110.666" y="662.666" width="1078.67" height="457.668" rx="82.647" stroke="#fff" stroke-width="5.332" />
    <image href="https://nemoprotocol.com/static/sui.svg" x="188" y="720" width="115" />
    <text x="314" y="800"
        font-size="50" font-weight="bold" fill="#fff">
        sUSDC
    </text>
    <text x="672" y="800" font-size="60" fill="#fff">
        Maturity  352 day
    </text>
    <text x="320" y="980" font-size="60" font-weight="bold" fill="#fff">
        0.00%
    </text>
    <text x="840" y="980" font-size="60" font-weight="bold" fill="#fff">
        32.122
    </text><text x="320" y="1040" font-size="40" fill="#fff" fill-opacity=".78">
        $0.00
    </text><text x="840" y="1040" font-size="40" fill="#fff" fill-opacity=".78">
        $4.36
    </text>
    <defs>
        <linearGradient id="b" x1="650" y1="102" x2="650" y2="1250" gradientUnits="userSpaceOnUse">
            <stop stop-color="color(display-p3 0 .2666 .9411)" />
            <stop offset="1" stop-color="color(display-p3 0 .4667 1)" />
        </linearGradient>
        <linearGradient id="c" x1="126" y1="650" x2="1102" y2="650" gradientUnits="userSpaceOnUse">
            <stop stop-color="color(display-p3 .2071 .4582 1)" />
            <stop offset="1" stop-color="color(display-p3 0 1 .8833)" />
        </linearGradient>
        <linearGradient id="d" x1="650" y1="102" x2="650" y2="1889" gradientUnits="userSpaceOnUse">
            <stop stop-color="color(display-p3 0 1 .9)" />
            <stop offset="1" stop-color="color(display-p3 .0133 .5282 .7669)" />
        </linearGradient>
        <linearGradient id="a" x1="0" y1="20.678" x2="1300" y2="1279.32" gradientUnits="userSpaceOnUse">
            <stop stop-color="color(display-p3 .6741 1 .9625)" />
            <stop offset="1" stop-color="color(display-p3 .043 1 .8899)" />
        </linearGradient>
        <pattern id="g" patternContentUnits="objectBoundingBox" width="1" height="1">
            <use xlink:href="#h" transform="scale(.00118 .00131)" />
        </pattern>
        <pattern id="f" patternContentUnits="objectBoundingBox" width="1" height="1">
            <use xlink:href="#i" transform="scale(0.0013587 0.000764624)" />
        </pattern>
        <image id="h" width="846" height="763" xlink:href="https://app.nemoprotocol.com/static/blueFish.png" />
        <image id="i" width="736" height="1308" xlink:href="https://www.nemoprotocol.com/static/background.png" />
    </defs>
</svg>