<svg width="121" height="28" fill="none" xmlns="http://www.w3.org/2000/svg" viewBox="0 0 121 28"><mask id="b" style="mask-type:alpha" maskUnits="userSpaceOnUse" x="0" y="2" width="111" height="21"><g clip-path="url(#a)"><path fill-rule="evenodd" clip-rule="evenodd" d="M9.788 2.989a3.38 3.38 0 0 0-3.151 2.155L.094 21.984h4.97l5.15-13.255h.002a.878.878 0 0 1 1.63 0h.686v-2.69H11.26l1.185-3.05H9.788Z" fill="#fff"/><path fill-rule="evenodd" clip-rule="evenodd" d="M6.637 5.144a3.38 3.38 0 0 1 2.982-2.151l-.001-.004h2.741a3.38 3.38 0 0 1 3.152 2.155l6.543 16.84h-5.056l-6.345-16.33a2.313 2.313 0 0 0-4.217.006l.2-.516Z" fill="#E6E6E6"/><path d="m29.93 16.216.97-2.581h4.281l.985 2.581h1.836L34.106 5.772h-2.044l-3.91 10.444h1.776Zm3.103-8.594 1.67 4.55h-3.326l1.656-4.55Zm5.777 6.073c.044 1.656 1.447 2.61 3.49 2.61 1.85 0 3.238-.924 3.238-2.387 0-1.7-1.417-2.059-3.163-2.268-1.104-.119-1.835-.208-1.835-.925 0-.611.627-1 1.581-1 .955 0 1.612.493 1.701 1.194h1.582c-.104-1.566-1.433-2.432-3.312-2.432-1.835-.015-3.134.925-3.134 2.373 0 1.581 1.373 1.954 3.119 2.163 1.178.15 1.88.21 1.88 1.03 0 .611-.657 1-1.657 1-1.163 0-1.85-.568-1.91-1.358h-1.58Zm7.95 0c.046 1.656 1.448 2.61 3.492 2.61 1.85 0 3.238-.924 3.238-2.387 0-1.7-1.418-2.059-3.163-2.268-1.104-.119-1.836-.208-1.836-.925 0-.611.627-1 1.582-1 .955 0 1.611.493 1.7 1.194h1.582c-.104-1.566-1.432-2.432-3.312-2.432-1.835-.015-3.133.925-3.133 2.373 0 1.581 1.373 1.954 3.118 2.163 1.179.15 1.88.21 1.88 1.03 0 .611-.656 1-1.656 1-1.164 0-1.85-.568-1.91-1.358h-1.581Zm12.052 2.611c1.895 0 3.178-1.15 3.447-2.656h-1.612c-.224.85-.94 1.343-1.925 1.343-1.268 0-2.089-.85-2.133-2.149v-.104h5.759c.03-.21.045-.418.045-.612-.045-2.238-1.522-3.64-3.73-3.64-2.253 0-3.76 1.566-3.76 3.924 0 2.342 1.507 3.894 3.909 3.894Zm-2.164-4.745c.12-1.09 1-1.776 2.03-1.776 1.119 0 1.91.642 2.044 1.776h-4.074Zm16.283-3.074c-1.253 0-2.118.552-2.61 1.388-.463-.985-1.358-1.388-2.358-1.388-1.149.015-1.805.523-2.238 1.09l-.18-1h-1.402v7.64h1.611v-4.089c0-1.358.687-2.253 1.791-2.253 1.06 0 1.611.701 1.611 2.044v4.297h1.627v-4.133c0-1.373.701-2.208 1.805-2.208 1.044 0 1.597.701 1.597 2.044v4.297h1.611v-4.401c0-2.417-1.283-3.328-2.865-3.328Zm8.862 0c-1.18 0-1.97.537-2.477 1.224V5.77h-1.612v10.445h1.403l.194-1.104c.477.686 1.298 1.194 2.492 1.194 2.089 0 3.61-1.567 3.61-3.91 0-2.461-1.521-3.909-3.61-3.909Zm-.269 6.46c-1.343 0-2.223-1.058-2.223-2.565 0-1.477.88-2.522 2.223-2.522s2.238 1.045 2.238 2.537c0 1.506-.895 2.55-2.238 2.55Zm5.618 1.269h1.612V5.772h-1.612v10.444Zm5.847.044-.298.747c-.24.627-.388.776-1.015.776h-1.134V19.2h1.73c1.12 0 1.448-.552 1.925-1.79l3.462-8.833h-1.716L93.87 14.38l-2.133-5.804H90.02l2.969 7.684Zm6.643-.044.97-2.581h4.282l.985 2.581h1.835L103.81 5.772h-2.044l-3.91 10.444h1.776Zm3.104-8.594 1.671 4.55h-3.327l1.656-4.55Zm6.487 8.594h1.716V5.772h-1.716v10.444Z" fill="#fff"/></g></mask><g mask="url(#b)"><path fill="#E2EFFF" d="M-1.586 2.179H22.2v22.993H-1.586z"/></g><path d="M36.35 3.508h.107c1.621 0 3.132.488 4.531 1.465a9.3 9.3 0 0 1 1.006.859c.436.469.752.856.947 1.162.918 1.4 1.377 2.91 1.377 4.531v8.819H41.74v-5.762H31.066v5.762h-2.578v-8.819c0-1.757.537-3.379 1.612-4.863a9.96 9.96 0 0 1 .82-.947l.4-.361c.456-.365.84-.632 1.153-.801 1.224-.697 2.516-1.045 3.877-1.045Zm-5.284 8.135v.36H41.74v-.36c0-1.648-.58-3.031-1.738-4.15-1.048-.938-2.25-1.407-3.604-1.407-1.12 0-2.148.329-3.086.986a6.472 6.472 0 0 0-.683.586c-1.042 1.1-1.563 2.429-1.563 3.985Zm19.22-2.706h6.991v2.168H50.49c-1.425 0-2.291.228-2.597.684a.753.753 0 0 0-.157.45v.097c0 .45.316.775.948.976.397.13.93.196 1.601.196h1.924c2.578 0 4.248.625 5.01 1.875.24.436.361.908.361 1.416v.078c0 1.53-.86 2.575-2.578 3.135a9.17 9.17 0 0 1-2.51.332h-6.885v-2.168h6.748c1.452 0 2.338-.27 2.657-.81a.96.96 0 0 0 .136-.47V16.8c0-.469-.426-.801-1.279-.996a6.757 6.757 0 0 0-1.309-.127H50.9c-1.178 0-2.1-.098-2.763-.293a5.909 5.909 0 0 1-.996-.352c-1.224-.599-1.836-1.497-1.836-2.695v-.078c0-1.27.625-2.19 1.875-2.764.84-.371 1.875-.556 3.105-.556Zm13.26 0h6.993v2.168h-6.787c-1.426 0-2.292.228-2.598.684a.753.753 0 0 0-.156.45v.097c0 .45.316.775.947.976.397.13.931.196 1.602.196h1.924c2.578 0 4.248.625 5.01 1.875.24.436.36.908.36 1.416v.078c0 1.53-.859 2.575-2.577 3.135a9.17 9.17 0 0 1-2.51.332h-6.885v-2.168h6.748c1.452 0 2.337-.27 2.656-.81a.96.96 0 0 0 .137-.47V16.8c0-.469-.426-.801-1.28-.996a6.758 6.758 0 0 0-1.308-.127h-1.66c-1.178 0-2.1-.098-2.764-.293a5.909 5.909 0 0 1-.996-.352c-1.224-.599-1.836-1.497-1.836-2.695v-.078c0-1.27.625-2.19 1.875-2.764.84-.371 1.875-.556 3.106-.556Zm8.282.05h5.606c2.148 0 3.636.803 4.463 2.411h.01V8.986h3.388c1.881 0 3.31.603 4.287 1.807.814 1.055 1.22 2.46 1.22 4.219v5.332h-2.617v-5.078c0-1.23-.169-2.107-.507-2.627-.248-.463-.645-.804-1.192-1.026a3.4 3.4 0 0 0-1.152-.195h-3.418v.01c.15.3.267.595.352.888.24.743.36 1.742.36 2.998v5.03h-2.626v-5.362c0-1.256-.27-2.18-.81-2.773-.495-.527-1.172-.791-2.032-.791h-2.754v8.926h-2.578V8.986Zm19.961-5.48h2.578v5.43h3.223c2.116 0 3.73.583 4.844 1.748.937 1.01 1.406 2.315 1.406 3.917v.097c0 2.435-.925 4.098-2.774 4.99-.944.437-2.076.655-3.398.655h-5.879V3.508Zm2.578 7.755v6.758h3.291c.905 0 1.706-.248 2.403-.743.8-.618 1.201-1.497 1.201-2.636 0-1.374-.563-2.354-1.69-2.94-.586-.293-1.24-.44-1.963-.44h-3.242Zm10.449-7.754h2.579v16.836h-2.579V3.508Zm3.555 5.37h2.617v5.04c0 1.764.515 2.94 1.543 3.525.423.241.951.362 1.582.362h3.731V8.879h2.578v11.309c0 1.562-.456 2.858-1.367 3.886-1.035 1.094-2.471 1.64-4.307 1.64h-6.025V23.44h5.996c.716 0 1.367-.232 1.953-.694.28-.247.459-.436.537-.566a3.43 3.43 0 0 0 .391-.713c.162-.45.244-.86.244-1.23h-3.418c-1.081 0-1.908-.095-2.481-.284a6.686 6.686 0 0 1-.791-.293c-1.048-.52-1.797-1.341-2.246-2.46-.358-.88-.537-1.925-.537-3.135V8.879Z" fill="#E2EFFF"/><defs><clipPath id="a"><path fill="#fff" transform="translate(0 2.972)" d="M0 0h111v19.029H0z"/></clipPath></defs></svg>