<svg width="138" height="28" fill="none" xmlns="http://www.w3.org/2000/svg" viewBox="0 0 138 28"><mask id="b" style="mask-type:alpha" maskUnits="userSpaceOnUse" x="0" y="5" width="68" height="16"><g clip-path="url(#a)"><path fill-rule="evenodd" clip-rule="evenodd" d="M12.83 20.005c-.097-.192-.097-.444-.097-.948V6.943c0-.504 0-.756.097-.949a.894.894 0 0 1 .388-.393c.19-.098.44-.098.937-.098h4.65c1.238 0 1.858 0 2.366.138a4.023 4.023 0 0 1 2.827 2.863c.137.514.137 1.142.137 2.397 0 .817-.366 1.116-.677 1.371-.232.19-.434.355-.434.69 0 .331.235.497.508.688.377.265.825.58.825 1.45 0 1.252 0 1.878-.136 2.392a4.023 4.023 0 0 1-2.828 2.864c-.508.138-1.126.138-2.363.139l-4.875.001c-.497 0-.746 0-.936-.097a.895.895 0 0 1-.389-.394Zm16.955-2.582-.606 1.922c-.113.36-.17.54-.278.673a.89.89 0 0 1-.358.265c-.158.064-.345.064-.718.064h-2.68l4.302-13.764c.113-.36.17-.541.277-.675a.889.889 0 0 1 .359-.266c.158-.064.345-.064.72-.064h2.952c.374 0 .56 0 .719.064a.88.88 0 0 1 .358.266c.109.134.165.314.278.675l4.305 13.764h-2.682c-.373 0-.56 0-.718-.064a.891.891 0 0 1-.358-.265c-.108-.133-.165-.313-.278-.673l-.607-1.922h-4.987Zm.756-2.399h3.475l-1.738-5.51-1.737 5.51Zm-29.12 5.323c-.497 0-.746 0-.936-.098a.894.894 0 0 1-.388-.393C0 19.663 0 19.41 0 18.907V5.653h2.28c.497 0 .746 0 .936.098a.894.894 0 0 1 .388.393c.097.193.097.445.097.949v9.086c0 .252 0 .378.048.474a.45.45 0 0 0 .195.196c.095.05.219.05.468.05h5.31c.498 0 .747 0 .937.097a.894.894 0 0 1 .388.394c.097.192.097.444.097.948v2.009H1.421Zm39.15-13.255c0-.503 0-.755.096-.948a.893.893 0 0 1 .388-.393c.19-.098.44-.098.937-.098H43.3c.3 0 .45 0 .584.044.12.04.228.104.32.189.106.096.18.227.33.491l4.55 8.047V7.093c0-.504 0-.756.097-.949a.894.894 0 0 1 .388-.393c.19-.098.44-.098.937-.098h2.132v13.252c0 .504 0 .755-.097.948a.893.893 0 0 1-.388.393c-.19.098-.438.098-.935.099l-1.309.001c-.3 0-.45 0-.585-.044a.886.886 0 0 1-.321-.188c-.105-.096-.18-.228-.329-.492l-4.55-8.046v7.331c0 .504 0 .756-.097.949a.893.893 0 0 1-.388.393c-.19.098-.439.098-.937.098H40.57V7.092Zm15.902-1.439H54.34v13.25c0 .505 0 .757.096.949.086.17.222.307.389.393.19.098.438.098.936.098h2.132V14.35h.582c.248 0 .373 0 .488.032a.883.883 0 0 1 .284.137c.096.07.175.168.331.364l3.955 4.933c.157.195.235.293.332.363a.881.881 0 0 0 .284.137c.115.032.239.032.488.032H68l-5.23-6.513c-.26-.324-.39-.486-.44-.666a.911.911 0 0 1 0-.486c.05-.18.18-.341.44-.665l5.117-6.364H64.56c-.247 0-.37 0-.486.032a.885.885 0 0 0-.282.135c-.097.07-.175.167-.332.362l-3.867 4.79c-.157.194-.235.291-.332.361a.885.885 0 0 1-.282.136c-.115.032-.24.032-.487.032h-.598V7.093c0-.504 0-.756-.096-.949a.894.894 0 0 0-.389-.393c-.19-.098-.439-.098-.936-.098ZM19.36 10.42c.28-.444.52-.828.52-1.318 0-.994-.796-1.8-1.78-1.8-.983 0-1.78.844-1.78 1.8 0 .49.248.874.535 1.318.392.606.856 1.324.856 2.58s-.464 1.974-.856 2.58c-.287.444-.535.828-.535 1.318 0 .994.797 1.8 1.78 1.8a1.79 1.79 0 0 0 1.78-1.8c0-.49-.24-.874-.52-1.318-.381-.606-.833-1.324-.833-2.58s.452-1.974.833-2.58Z" fill="#fff"/></g></mask><g mask="url(#b)"><path fill="#E2EFFF" d="M-8-8.5h82v36H-8z"/></g><path d="M72.488 3.508h2.578v10.566c0 1.224.28 2.175.84 2.852.215.24.414.426.596.556a3.46 3.46 0 0 0 1.963.586h6.914v2.276h-6.924c-2.435 0-4.144-.814-5.127-2.442-.56-.99-.84-2.203-.84-3.642V3.508Zm13.868 0h2.578v5.43h3.222c2.116 0 3.73.582 4.844 1.747.938 1.01 1.406 2.315 1.406 3.917v.097c0 2.435-.924 4.098-2.773 4.99-.944.437-2.077.655-3.399.655h-5.878V3.508Zm2.578 7.754v6.758h3.29c.906 0 1.706-.248 2.403-.743.8-.618 1.201-1.497 1.201-2.636 0-1.374-.563-2.354-1.69-2.94-.585-.293-1.24-.44-1.962-.44h-3.242Zm16.64-2.325h5.86v11.407h-5.879c-1.947 0-3.454-.46-4.522-1.377-1.1-.977-1.65-2.4-1.65-4.268v-.117c0-1.543.443-2.819 1.328-3.828 1.133-1.211 2.754-1.816 4.863-1.816Zm-3.613 5.713c0 1.283.508 2.23 1.523 2.842a4.246 4.246 0 0 0 2.1.527h3.271v-6.757h-3.281c-1.009 0-1.868.286-2.578.86-.69.611-1.035 1.454-1.035 2.528Zm10.449-5.664h5.918c1.758 0 3.128.54 4.111 1.621.918 1.068 1.377 2.536 1.377 4.405v5.332h-2.627v-5.166c0-1.823-.621-3.002-1.865-3.535a3.75 3.75 0 0 0-1.279-.225h-3.057v8.926h-2.578V8.986Zm12.383-5.478h2.578v9.99h.01c1.933 0 3.545-.387 4.834-1.162 1.315-.827 1.973-1.956 1.973-3.389h2.656v.05c0 2.454-.983 4.27-2.949 5.448-.118.078-.248.15-.391.215v.01c1.426.716 2.402 1.768 2.93 3.154.273.762.41 1.582.41 2.461v.059h-2.656c0-1.563-.785-2.75-2.354-3.565-1.224-.605-2.712-.908-4.463-.908v4.473h-2.578V3.508Z" fill="#E2EFFF"/><defs><clipPath id="a"><path fill="#fff" transform="translate(0 5.5)" d="M0 0h68v15H0z"/></clipPath></defs></svg>