<svg width="114" height="18" fill="none" xmlns="http://www.w3.org/2000/svg" viewBox="0 0 114 18"><path d="M10.518.488h.058c.547 0 1.003.248 1.367.742.144.222.251.518.323.89a4101.287 4101.287 0 0 1 2.334 9.92h.02c0-.013.741-2.666 2.226-7.959l.996-3.555h2.734l-2.441 8.721-1.807 6.416a3.71 3.71 0 0 1-.498.947c-.397.489-.83.733-1.299.733h-.049c-.494 0-.94-.267-1.337-.801-.228-.352-.372-.667-.43-.947-.033-.085-.335-1.367-.908-3.848-.02-.045-.485-2.015-1.397-5.908-.143.501-1.025 3.64-2.646 9.414a4.16 4.16 0 0 1-.44 1.123c-.43.645-.924.967-1.484.967h-.02c-.586 0-1.084-.342-1.494-1.026a4.005 4.005 0 0 1-.312-.79L2.1 7.401.488.527h2.735c.201.86.996 4.235 2.382 10.127l.323 1.397h.01l2.119-7.598.78-2.754a3.54 3.54 0 0 1 .255-.459c.397-.501.872-.752 1.426-.752Zm17.236 5.45h.517c1.745 0 3.171.423 4.278 1.269.397.332.683.622.86.87.709.963 1.064 2.131 1.064 3.505v.137c0 .41-.033.817-.098 1.22h-10.02c.267.704.713 1.228 1.338 1.573a4.275 4.275 0 0 0 2.07.508h6.456v2.324h-6.485c-1.438 0-2.653-.257-3.642-.772-1.686-.924-2.53-2.549-2.53-4.873v-.117c0-1.543.443-2.819 1.329-3.828 1.132-1.211 2.754-1.816 4.863-1.816Zm-3.457 4.57h7.441c-.234-.73-.641-1.276-1.22-1.64-.665-.404-1.413-.606-2.247-.606h-.517c-1.061 0-1.95.315-2.666.947-.313.326-.514.599-.606.82a3.213 3.213 0 0 0-.185.479Zm11.152-10h2.578v5.43h3.223c2.116 0 3.73.582 4.844 1.748C47.03 8.695 47.5 10 47.5 11.602v.097c0 2.435-.925 4.098-2.773 4.99-.944.437-2.077.655-3.399.655H35.45V.508Zm2.578 7.754v6.758h3.291c.905 0 1.706-.248 2.403-.743.8-.618 1.2-1.497 1.2-2.636 0-1.374-.562-2.354-1.689-2.94-.585-.293-1.24-.44-1.962-.44h-3.243ZM49.512.498h6.093c2.65 0 4.382.674 5.196 2.022.456.716.683 1.637.683 2.763 0 1.36-.403 2.451-1.21 3.272v.01c1.308.735 1.962 2.047 1.962 3.935v.098c0 1.471-.488 2.623-1.464 3.457-1.055.86-2.52 1.289-4.395 1.289h-7.022v-2.325h6.983c1.647 0 2.676-.439 3.086-1.318.156-.338.234-.72.234-1.142 0-1.153-.543-1.905-1.63-2.256-.47-.15-1.055-.225-1.758-.225h-6.163V7.764h5.44c1.614 0 2.64-.414 3.076-1.24.182-.346.274-.743.274-1.192v-.059c0-1.634-1.117-2.45-3.35-2.45h-6.035V.497Zm24.58.01h1.435v2.197h-1.171c-1.146 0-1.996.16-2.55.479-.93.5-1.396 1.419-1.396 2.753h5.117v2.276h-5.195v9.13h-2.578v-9.13h-3.652V5.938h3.652v-.069c0-2.376.963-3.971 2.89-4.785.964-.384 2.113-.576 3.448-.576Zm2.412 5.527h2.617v5.069c0 1.79.609 2.959 1.826 3.505.423.17.895.254 1.416.254 1.296 0 2.162-.537 2.598-1.611.215-.514.322-1.234.322-2.158V6.035h2.627v5.225c0 2.87-.908 4.75-2.724 5.635-.801.364-1.72.546-2.754.546h-.118c-1.796 0-3.242-.582-4.335-1.748a.99.99 0 0 0-.108-.136c-.911-1.114-1.367-2.546-1.367-4.297V6.035Zm12.383-.049h5.918c1.757 0 3.128.54 4.111 1.621.918 1.068 1.377 2.536 1.377 4.405v5.332h-2.627v-5.166c0-1.823-.622-3.002-1.865-3.535a3.756 3.756 0 0 0-1.28-.225h-3.056v8.926h-2.578V5.986ZM110.742.508h2.578v16.836h-5.879c-1.933 0-3.437-.456-4.511-1.367-1.107-.977-1.66-2.403-1.66-4.278v-.117c0-1.335.338-2.48 1.015-3.437 1.1-1.472 2.845-2.207 5.235-2.207h3.222V.508Zm-6.894 11.142c0 1.341.553 2.315 1.66 2.92.612.3 1.26.45 1.943.45h3.291V8.262H107.5c-1.022 0-1.882.276-2.578.83-.716.612-1.074 1.465-1.074 2.558Z" fill="#E2EFFF"/></svg>