<svg width="240" height="180" fill="none" xmlns="http://www.w3.org/2000/svg" viewBox="0 0 240 180"><path d="M101.243 172.948c-.932-.841-1.439-1.747-1.439-2.69 0-4.457 11.322-8.071 25.288-8.071 13.966 0 25.287 3.614 25.287 8.071 0 .943-.507 1.849-1.438 2.69" stroke="#fff" stroke-width="1.2"/><path d="M101.243 172.948c-.932-.841-1.439-1.747-1.439-2.69 0-4.457 11.322-8.071 25.288-8.071 13.966 0 25.287 3.614 25.287 8.071 0 .943-.507 1.849-1.438 2.69" stroke="#fff" stroke-width="1.2"/><path d="M101.243 172.948c-.932-.841-1.439-1.747-1.439-2.69 0-4.457 11.322-8.071 25.288-8.071 13.966 0 25.287 3.614 25.287 8.071 0 .943-.507 1.849-1.438 2.69" stroke="#fff" stroke-width="1.2"/><path d="M96.037 171.872c-5.918-1.66-8.07-3.668-8.07-6.641 0-7.029 16.862-12.728 37.662-12.728 20.801 0 37.663 5.699 37.663 12.728 0 3.077-3.769 4.44-9.147 6.641" stroke="#fff" stroke-width="1.2"/><path d="M96.037 171.872c-5.918-1.66-8.07-3.668-8.07-6.641 0-7.029 16.862-12.728 37.662-12.728 20.801 0 37.663 5.699 37.663 12.728 0 3.077-3.769 4.44-9.147 6.641" stroke="#fff" stroke-width="1.2"/><path d="M96.037 171.872c-5.918-1.66-8.07-3.668-8.07-6.641 0-7.029 16.862-12.728 37.662-12.728 20.801 0 37.663 5.699 37.663 12.728 0 3.077-3.769 4.44-9.147 6.641" stroke="#fff" stroke-width="1.2"/><g opacity=".6" stroke="#fff" stroke-width="1.2"><path d="M97.113 172.41c-14.188-2.944-20.983-7.752-20.983-13.858 0-9.284 21.92-16.81 48.961-16.81 27.041 0 48.961 7.526 48.961 16.81 0 3.922-3.766 11.069-14.527 12.724"/><path d="M97.113 172.41c-14.188-2.944-20.983-7.752-20.983-13.858 0-9.284 21.92-16.81 48.961-16.81 27.041 0 48.961 7.526 48.961 16.81 0 3.922-3.766 11.069-14.527 12.724"/><path d="M97.113 172.41c-14.188-2.944-20.983-7.752-20.983-13.858 0-9.284 21.92-16.81 48.961-16.81 27.041 0 48.961 7.526 48.961 16.81 0 3.922-3.766 11.069-14.527 12.724"/></g><path d="M125.092 174.624c17.427 0 33.23-2.247 44.698-5.982 5.731-1.867 10.413-4.116 13.675-6.667 3.257-2.548 5.177-5.465 5.177-8.661 0-3.195-1.918-6.145-5.173-8.743-3.26-2.603-7.941-4.921-13.673-6.856-11.468-3.873-27.274-6.257-44.704-6.257-17.431 0-33.236 2.384-44.705 6.257-5.731 1.935-10.412 4.253-13.673 6.856-3.255 2.598-5.172 5.548-5.172 8.743 0 3.196 1.92 6.113 5.177 8.661 3.262 2.551 7.944 4.8 13.675 6.667 11.467 3.735 27.271 5.982 44.698 5.982Z" stroke="color(display-p3 .3863 .3863 .3863)" stroke-width="1.2"/><path d="M125.092 174.625c21.292 0 40.593-2.836 54.591-7.437 6.996-2.299 12.701-5.05 16.67-8.134 3.96-3.078 6.278-6.559 6.278-10.317s-2.318-7.239-6.278-10.317c-3.969-3.084-9.674-5.835-16.67-8.134-13.998-4.601-33.299-7.437-54.591-7.437s-40.593 2.836-54.592 7.437c-6.996 2.299-12.701 5.05-16.67 8.134-3.96 3.078-6.277 6.559-6.277 10.317s2.317 7.239 6.278 10.317c3.968 3.084 9.673 5.835 16.67 8.134 13.998 4.601 33.299 7.437 54.591 7.437Z" stroke="color(display-p3 .1815 .1815 .1815)" stroke-width="1.2"/><path d="M120.075 60.487s2.538-14.35 19.595-7.558c18.093 7.204 22.297 34.591 15.51 54.093" fill="#000"/><path d="M120.075 60.487s2.538-14.35 19.595-7.558c18.093 7.204 22.297 34.591 15.51 54.093" stroke="#fff" stroke-width="1.518" stroke-miterlimit="10" stroke-linecap="round" stroke-linejoin="round"/><path d="M108.551 64.043s17.317-11.485 35.023 4.692c17.707 16.176 15.104 57.05-6.639 77.301 0 0 10.547-4.075 16.536-1.235 5.989 2.84 8.203 10.99.39 10.743-7.812-.247-17.708-5.68-17.708-5.68s-9.244 5.557-14.192 4.569c-4.948-.988-6.51-12.966 10.026-8.644 0 0-1.693-11.854-15.754-21.239-7.623-5.088-17.11-15.27-17.8-22.824" fill="#000"/><path d="M108.551 64.043s17.317-11.485 35.023 4.692c17.707 16.176 15.104 57.05-6.639 77.301 0 0 10.547-4.075 16.536-1.235 5.989 2.84 8.203 10.99.39 10.743-7.812-.247-17.708-5.68-17.708-5.68s-9.244 5.557-14.192 4.569c-4.948-.988-6.51-12.966 10.026-8.644 0 0-1.693-11.854-15.754-21.239-7.623-5.088-17.11-15.27-17.8-22.824" stroke="#fff" stroke-width="1.518" stroke-miterlimit="10" stroke-linecap="round" stroke-linejoin="round"/><path d="M99.046 87.01c-4.688-8.273-.529-21.818 6.771-22.35 6.77-.494 9.765 5.927 9.765 5.927 3.812-5.06 9.021-8.212 15.493-4.569 11.849 6.668 1.954 21.857 1.954 21.857l-17.374 12.533L99.046 87.01Z" fill="#000" stroke="#fff" stroke-width="1.518" stroke-miterlimit="10" stroke-linecap="round" stroke-linejoin="round"/><path d="M146.41 86.24c-1.454-1.377-3.669-1.73-5.515-.873-4.126 1.912-12.43 4.825-23.882 4.235-9.624-.495-16.427-1.923-20.481-3.053-2.627-.73-5.411.528-6.46 2.925a4.85 4.85 0 0 0 .325 4.517c2.59 4.186 9.705 12.292 25.706 11.664 17.611-.693 26.781-8.664 30.692-13.37 1.505-1.814 1.336-4.41-.385-6.044Z" fill="#000" stroke="#fff" stroke-width="1.518" stroke-miterlimit="10" stroke-linecap="round" stroke-linejoin="round"/><path d="M139.018 92.567s-10.937 6.298-24.218 5.804c-13.281-.494-19.4-5.557-19.4-5.557" fill="#000"/><path d="M139.018 92.567s-10.937 6.298-24.218 5.804c-13.281-.494-19.4-5.557-19.4-5.557" stroke="#fff" stroke-width="1.518" stroke-miterlimit="10" stroke-linecap="round" stroke-linejoin="round"/><path d="M133.029 87.875s9.895-15.189-1.954-21.857c-6.472-3.643-11.681-.49-15.493 4.57 0 0-2.995-6.422-9.765-5.928-7.3.532-11.458 14.077-6.771 22.35" fill="#000"/><path d="M133.029 87.875s9.895-15.189-1.954-21.857c-6.472-3.643-11.681-.49-15.493 4.57 0 0-2.995-6.422-9.765-5.928-7.3.532-11.458 14.077-6.771 22.35" stroke="#fff" stroke-width="1.518" stroke-miterlimit="10" stroke-linecap="round" stroke-linejoin="round"/><path d="M121.288 79.416c0 2.739 1.694 4.613 3.408 4.613 1.713 0 3.407-1.874 3.407-4.612 0-2.739-1.694-4.613-3.407-4.613-1.714 0-3.408 1.874-3.408 4.612Zm-17.056 0c0 2.739 1.693 4.613 3.407 4.613s3.408-1.874 3.408-4.612c0-2.739-1.694-4.613-3.408-4.613s-3.407 1.874-3.407 4.612Z" fill="#000" stroke="#fff" stroke-width="1.518"/><path d="M146.41 86.24c-1.454-1.377-3.669-1.73-5.515-.873-4.126 1.912-12.43 4.825-23.882 4.235-9.624-.495-16.427-1.923-20.481-3.053-2.627-.73-5.411.528-6.46 2.925a4.85 4.85 0 0 0 .325 4.517c2.59 4.186 9.705 12.292 25.706 11.664 17.611-.693 26.781-8.664 30.692-13.37 1.505-1.814 1.336-4.41-.385-6.044Z" fill="#000" stroke="#fff" stroke-width="1.518" stroke-miterlimit="10" stroke-linecap="round" stroke-linejoin="round"/><path d="M139.018 92.567s-10.937 6.298-24.218 5.804c-13.281-.494-19.4-5.557-19.4-5.557" fill="#000"/><path d="M139.018 92.567s-10.937 6.298-24.218 5.804c-13.281-.494-19.4-5.557-19.4-5.557" stroke="#fff" stroke-width="1.518" stroke-miterlimit="10" stroke-linecap="round" stroke-linejoin="round"/><path d="M121.288 79.416c0 2.739 1.694 4.613 3.408 4.613 1.713 0 3.407-1.874 3.407-4.612 0-2.739-1.694-4.613-3.407-4.613-1.714 0-3.408 1.874-3.408 4.612Zm-17.056 0c0 2.739 1.693 4.613 3.407 4.613s3.408-1.874 3.408-4.612c0-2.739-1.694-4.613-3.408-4.613s-3.407 1.874-3.407 4.612Z" fill="#fff" stroke="#fff" stroke-width="1.518"/><path d="M106.5 82a1.5 1.5 0 1 1 0-3 1.5 1.5 0 0 1 0 3Zm17 0a1.5 1.5 0 1 1 0-3 1.5 1.5 0 0 1 0 3Zm25.543-22.403s2.943 11.223.95 18.578l-.95-18.578Z" fill="#000"/><path d="M149.043 59.597s2.943 11.223.95 18.578" stroke="#fff" stroke-width="1.518" stroke-miterlimit="10"/><path d="m130.015 108.757-3.235 6.901s14.973 14.571 9.244 26.673c-5.73 12.101-33.462 10.496-40.754 2.47-7.291-8.027 4.427-24.821 4.427-24.821l-4.953-7.661 35.271-3.562Z" fill="#000" stroke="#fff" stroke-width="1.518" stroke-miterlimit="10" stroke-linejoin="round"/><path d="M128.341 110.596c-1.58.899-2.995.123-4.688 2.222-1.693 2.1-3.515 1.853-6.51.988-2.994-.864-5.468 3.828-8.724 1.852-3.255-1.975-5.338-2.346-7.682-1.358-2.344.988-6.51-1.111-5.599-2.84.911-1.729 6.51-4.569 10.026-2.593 3.515 1.976 5.989 2.593 8.203 1.111 2.214-1.482 6.771-2.222 7.161-.988.39 1.235 5.728-1.605 7.552-1.728 1.823-.124 3.516 1.481.261 3.334Z" fill="#000" stroke="#fff" stroke-width="1.518" stroke-miterlimit="10" stroke-linejoin="round"/><path d="M126.78 115.658s-3.906 4.94-15.755 5.68c-11.848.741-11.327-1.358-11.327-1.358" stroke="#fff" stroke-width="1.518" stroke-miterlimit="10" stroke-linecap="round" stroke-linejoin="round"/><path d="M128.211 117.881s-3.516 6.174-17.837 5.927c-4.92-.085-8.611-1.088-11.336-2.367" stroke="#fff" stroke-width="1.518" stroke-miterlimit="10" stroke-linecap="round" stroke-linejoin="round"/><path d="M112.605 126.698c5.39 0 9.76 4.144 9.76 9.257 0 5.112-4.37 9.256-9.76 9.256s-9.76-4.144-9.76-9.256c0-5.113 4.37-9.257 9.76-9.257Zm-6.136 9.257c2.89.928 5.158 3.079 6.136 5.819.979-2.74 3.248-4.891 6.136-5.819-2.889-.929-5.158-3.08-6.136-5.82-.978 2.74-3.247 4.891-6.136 5.82Z" fill="#fff"/><path d="M144.225 107.015s-8.853 8.397-17.447 9.261c-8.593.864 3.777 13.336 11.328 9.508 7.551-3.828 9.244-12.348 9.244-12.348" fill="#000"/><path d="M144.225 107.015s-8.853 8.397-17.447 9.261c-8.593.864 3.777 13.336 11.328 9.508 7.551-3.828 9.244-12.348 9.244-12.348" stroke="#fff" stroke-width="1.518" stroke-miterlimit="10" stroke-linecap="round" stroke-linejoin="round"/><path d="M99.834 120.461s3.279 1.372 2.508 3.201c-.77 1.829-8.004 9.512-7.908 3.018.097-6.494 2.315-9.787 2.315-9.787l3.085 3.568Z" fill="#000" stroke="#fff" stroke-width="1.518" stroke-miterlimit="10" stroke-linejoin="round"/><path d="M112.372 19.336c2.461 3.084 3.04 7.247 1.914 11.535-1.125 4.287-3.951 8.66-8.231 12.076-4.281 3.416-9.17 5.203-13.601 5.35-4.43.147-8.362-1.34-10.823-4.424-2.462-3.083-3.04-7.247-1.915-11.534 1.126-4.288 3.952-8.66 8.232-12.077 4.28-3.416 9.17-5.202 13.601-5.35 4.43-.147 8.362 1.34 10.823 4.424Z" fill="#000" stroke="#fff" stroke-width="1.11"/><path d="M109.83 16.865c2.461 3.084 3.04 7.248 1.914 11.535-1.125 4.287-3.951 8.66-8.231 12.076-4.28 3.417-9.17 5.203-13.601 5.35-4.43.148-8.362-1.34-10.823-4.423-2.462-3.084-3.04-7.248-1.915-11.535 1.126-4.287 3.952-8.66 8.232-12.076 4.28-3.417 9.17-5.203 13.6-5.35 4.431-.148 8.363 1.34 10.824 4.423Z" fill="#000" stroke="#fff" stroke-width="1.11"/><path d="M176.881 52.922a.533.533 0 0 0-.966-.259l-1.778 2.511-3.064.285a.533.533 0 0 0-.259.966l2.511 1.778.285 3.064c.045.493.68.663.966.259l1.778-2.511 3.064-.285a.533.533 0 0 0 .258-.966l-2.51-1.778-.285-3.064ZM54.198 42.79a.533.533 0 0 0-.966-.258l-1.778 2.51-3.064.285a.533.533 0 0 0-.259.966l2.511 1.778.285 3.064c.045.493.68.663.966.259l1.778-2.511 3.064-.285a.533.533 0 0 0 .258-.966l-2.51-1.778-.285-3.063Z" stroke="#fff" stroke-width=".533"/><mask id="a" fill="#fff"><path fill-rule="evenodd" clip-rule="evenodd" d="M218.852 82.255a9.205 9.205 0 0 0-.617-.683c-5.425-5.425-16.609-3.038-24.979 5.333-8.371 8.37-10.758 19.553-5.333 24.979.151.15.306.295.465.434.971 1.278 2.293 2.625 4.026 4.056 5.426 5.426 16.609 3.038 24.98-5.332 8.37-8.371 10.757-19.554 5.332-24.98-1.385-1.577-2.67-2.833-3.874-3.807Z"/></mask><path fill-rule="evenodd" clip-rule="evenodd" d="M218.852 82.255a9.205 9.205 0 0 0-.617-.683c-5.425-5.425-16.609-3.038-24.979 5.333-8.371 8.37-10.758 19.553-5.333 24.979.151.15.306.295.465.434.971 1.278 2.293 2.625 4.026 4.056 5.426 5.426 16.609 3.038 24.98-5.332 8.37-8.371 10.757-19.554 5.332-24.98-1.385-1.577-2.67-2.833-3.874-3.807Z" fill="color(display-p3 .0039 .0196 .051)"/><path d="m218.852 82.255-.881.72.074.09.091.074.716-.884Zm-30.464 30.063.907-.689-.071-.093-.089-.077-.747.859Zm4.026 4.056.805-.805-.038-.038-.042-.034-.725.877Zm30.312-30.311-.855.75.024.028.026.026.805-.805Zm-5.296-3.686c.191.191.372.39.541.598l1.763-1.44a10.365 10.365 0 0 0-.694-.768l-1.61 1.61Zm-23.369 5.333c4.053-4.053 8.751-6.62 13.026-7.532 4.289-.915 7.994-.15 10.343 2.199l1.61-1.61c-3.076-3.076-7.676-3.83-12.428-2.815-4.765 1.017-9.844 3.83-14.161 8.148l1.61 1.61Zm-5.333 23.369c-2.349-2.349-3.114-6.054-2.199-10.343.913-4.275 3.479-8.974 7.532-13.026l-1.61-1.61c-4.318 4.317-7.131 9.396-8.148 14.161-1.015 4.752-.261 9.351 2.815 12.428l1.61-1.61Zm.407.38a8.553 8.553 0 0 1-.407-.38l-1.61 1.61c.169.169.344.332.523.487l1.494-1.717Zm4.004 4.038c-1.684-1.392-2.94-2.676-3.844-3.868l-1.813 1.377c1.037 1.366 2.426 2.775 4.207 4.246l1.45-1.755Zm23.45-5.26c-4.053 4.053-8.752 6.618-13.027 7.531-4.289.916-7.994.15-10.343-2.199l-1.61 1.61c3.077 3.076 7.676 3.83 12.428 2.816 4.765-1.018 9.844-3.831 14.161-8.148l-1.609-1.61Zm5.332-23.37c2.349 2.35 3.114 6.054 2.199 10.343-.913 4.276-3.478 8.974-7.531 13.027l1.609 1.61c4.318-4.318 7.131-9.397 8.148-14.162 1.015-4.752.261-9.351-2.815-12.427l-1.61 1.61Zm-3.785-3.728c1.142.925 2.381 2.132 3.735 3.674l1.711-1.501c-1.416-1.614-2.748-2.918-4.014-3.942l-1.432 1.77Z" fill="#fff" mask="url(#a)"/><path d="m218.852 82.255-.881.72.074.09.091.074.716-.884Zm-30.464 30.063.907-.689-.071-.093-.089-.077-.747.859Zm4.026 4.056.805-.805-.038-.038-.042-.034-.725.877Zm30.312-30.311-.855.75.024.028.026.026.805-.805Zm-5.296-3.686c.191.191.372.39.541.598l1.763-1.44a10.365 10.365 0 0 0-.694-.768l-1.61 1.61Zm-23.369 5.333c4.053-4.053 8.751-6.62 13.026-7.532 4.289-.915 7.994-.15 10.343 2.199l1.61-1.61c-3.076-3.076-7.676-3.83-12.428-2.815-4.765 1.017-9.844 3.83-14.161 8.148l1.61 1.61Zm-5.333 23.369c-2.349-2.349-3.114-6.054-2.199-10.343.913-4.275 3.479-8.974 7.532-13.026l-1.61-1.61c-4.318 4.317-7.131 9.396-8.148 14.161-1.015 4.752-.261 9.351 2.815 12.428l1.61-1.61Zm.407.38a8.553 8.553 0 0 1-.407-.38l-1.61 1.61c.169.169.344.332.523.487l1.494-1.717Zm4.004 4.038c-1.684-1.392-2.94-2.676-3.844-3.868l-1.813 1.377c1.037 1.366 2.426 2.775 4.207 4.246l1.45-1.755Zm23.45-5.26c-4.053 4.053-8.752 6.618-13.027 7.531-4.289.916-7.994.15-10.343-2.199l-1.61 1.61c3.077 3.076 7.676 3.83 12.428 2.816 4.765-1.018 9.844-3.831 14.161-8.148l-1.609-1.61Zm5.332-23.37c2.349 2.35 3.114 6.054 2.199 10.343-.913 4.276-3.478 8.974-7.531 13.027l1.609 1.61c4.318-4.318 7.131-9.397 8.148-14.162 1.015-4.752.261-9.351-2.815-12.427l-1.61 1.61Zm-3.785-3.728c1.142.925 2.381 2.132 3.735 3.674l1.711-1.501c-1.416-1.614-2.748-2.918-4.014-3.942l-1.432 1.77Z" fill="#fff" mask="url(#a)"/><path d="m218.852 82.255-.881.72.074.09.091.074.716-.884Zm-30.464 30.063.907-.689-.071-.093-.089-.077-.747.859Zm4.026 4.056.805-.805-.038-.038-.042-.034-.725.877Zm30.312-30.311-.855.75.024.028.026.026.805-.805Zm-5.296-3.686c.191.191.372.39.541.598l1.763-1.44a10.365 10.365 0 0 0-.694-.768l-1.61 1.61Zm-23.369 5.333c4.053-4.053 8.751-6.62 13.026-7.532 4.289-.915 7.994-.15 10.343 2.199l1.61-1.61c-3.076-3.076-7.676-3.83-12.428-2.815-4.765 1.017-9.844 3.83-14.161 8.148l1.61 1.61Zm-5.333 23.369c-2.349-2.349-3.114-6.054-2.199-10.343.913-4.275 3.479-8.974 7.532-13.026l-1.61-1.61c-4.318 4.317-7.131 9.396-8.148 14.161-1.015 4.752-.261 9.351 2.815 12.428l1.61-1.61Zm.407.38a8.553 8.553 0 0 1-.407-.38l-1.61 1.61c.169.169.344.332.523.487l1.494-1.717Zm4.004 4.038c-1.684-1.392-2.94-2.676-3.844-3.868l-1.813 1.377c1.037 1.366 2.426 2.775 4.207 4.246l1.45-1.755Zm23.45-5.26c-4.053 4.053-8.752 6.618-13.027 7.531-4.289.916-7.994.15-10.343-2.199l-1.61 1.61c3.077 3.076 7.676 3.83 12.428 2.816 4.765-1.018 9.844-3.831 14.161-8.148l-1.609-1.61Zm5.332-23.37c2.349 2.35 3.114 6.054 2.199 10.343-.913 4.276-3.478 8.974-7.531 13.027l1.609 1.61c4.318-4.318 7.131-9.397 8.148-14.162 1.015-4.752.261-9.351-2.815-12.427l-1.61 1.61Zm-3.785-3.728c1.142.925 2.381 2.132 3.735 3.674l1.711-1.501c-1.416-1.614-2.748-2.918-4.014-3.942l-1.432 1.77Z" fill="#fff" mask="url(#a)"/><path d="M217.833 81.974c2.531 2.53 3.293 6.459 2.353 10.863-.939 4.398-3.566 9.192-7.685 13.311s-8.913 6.746-13.311 7.685c-4.404.941-8.333.178-10.864-2.353-2.53-2.53-3.293-6.459-2.352-10.863.938-4.398 3.566-9.192 7.685-13.31 4.119-4.12 8.912-6.748 13.31-7.686 4.405-.94 8.333-.178 10.864 2.353Z" fill="color(display-p3 .0039 .0196 .051)"/><path d="M217.833 81.974c2.531 2.53 3.293 6.459 2.353 10.863-.939 4.398-3.566 9.192-7.685 13.311s-8.913 6.746-13.311 7.685c-4.404.941-8.333.178-10.864-2.353-2.53-2.53-3.293-6.459-2.352-10.863.938-4.398 3.566-9.192 7.685-13.31 4.119-4.12 8.912-6.748 13.31-7.686 4.405-.94 8.333-.178 10.864 2.353Z" stroke="#fff" stroke-width="1.138"/><path d="M217.833 81.974c2.531 2.53 3.293 6.459 2.353 10.863-.939 4.398-3.566 9.192-7.685 13.311s-8.913 6.746-13.311 7.685c-4.404.941-8.333.178-10.864-2.353-2.53-2.53-3.293-6.459-2.352-10.863.938-4.398 3.566-9.192 7.685-13.31 4.119-4.12 8.912-6.748 13.31-7.686 4.405-.94 8.333-.178 10.864 2.353Z" stroke="#fff" stroke-width="1.138"/><path d="M217.833 81.974c2.531 2.53 3.293 6.459 2.353 10.863-.939 4.398-3.566 9.192-7.685 13.311s-8.913 6.746-13.311 7.685c-4.404.941-8.333.178-10.864-2.353-2.53-2.53-3.293-6.459-2.352-10.863.938-4.398 3.566-9.192 7.685-13.31 4.119-4.12 8.912-6.748 13.31-7.686 4.405-.94 8.333-.178 10.864 2.353Z" stroke="#fff" stroke-width="1.138"/><path d="M214.466 85.342c1.909 1.91 2.489 4.898 1.752 8.288-.735 3.383-2.772 7.083-5.962 10.273-3.19 3.19-6.891 5.227-10.273 5.962-3.39.737-6.379.157-8.288-1.752-1.909-1.909-2.489-4.898-1.752-8.288.735-3.383 2.772-7.083 5.962-10.273 3.19-3.19 6.89-5.227 10.273-5.962 3.39-.737 6.379-.157 8.288 1.752Z" fill="color(display-p3 .0039 .0196 .051)"/><path d="M214.466 85.342c1.909 1.91 2.489 4.898 1.752 8.288-.735 3.383-2.772 7.083-5.962 10.273-3.19 3.19-6.891 5.227-10.273 5.962-3.39.737-6.379.157-8.288-1.752-1.909-1.909-2.489-4.898-1.752-8.288.735-3.383 2.772-7.083 5.962-10.273 3.19-3.19 6.89-5.227 10.273-5.962 3.39-.737 6.379-.157 8.288 1.752Z" stroke="#fff" stroke-width="1.138"/><path d="M214.466 85.342c1.909 1.91 2.489 4.898 1.752 8.288-.735 3.383-2.772 7.083-5.962 10.273-3.19 3.19-6.891 5.227-10.273 5.962-3.39.737-6.379.157-8.288-1.752-1.909-1.909-2.489-4.898-1.752-8.288.735-3.383 2.772-7.083 5.962-10.273 3.19-3.19 6.89-5.227 10.273-5.962 3.39-.737 6.379-.157 8.288 1.752Z" stroke="#fff" stroke-width="1.138"/><path d="M214.466 85.342c1.909 1.91 2.489 4.898 1.752 8.288-.735 3.383-2.772 7.083-5.962 10.273-3.19 3.19-6.891 5.227-10.273 5.962-3.39.737-6.379.157-8.288-1.752-1.909-1.909-2.489-4.898-1.752-8.288.735-3.383 2.772-7.083 5.962-10.273 3.19-3.19 6.89-5.227 10.273-5.962 3.39-.737 6.379-.157 8.288 1.752Zm-16.157 29.067 3.929 3.929m-7.297-3.929 4.491 4.491m1.683-5.052 3.929 3.929m-1.684-5.051 4.491 4.49m-2.245-5.613 4.49 4.49m-1.683-6.175 4.49 4.491m-2.807-6.175 4.49 4.491" stroke="#fff" stroke-width="1.138"/><mask id="b" fill="#fff"><path fill-rule="evenodd" clip-rule="evenodd" d="M67.298 116.204c.308-.261.604-.539.888-.833 7.013-7.28 3.593-21.953-7.64-32.774-11.232-10.82-26.022-13.69-33.035-6.41-.194.201-.38.408-.557.62-1.662 1.31-3.404 3.086-5.249 5.406-7.013 7.28-3.593 21.954 7.64 32.774 11.232 10.82 26.022 13.69 33.035 6.41 2.043-1.861 3.664-3.584 4.918-5.193Z"/></mask><path fill-rule="evenodd" clip-rule="evenodd" d="M67.298 116.204c.308-.261.604-.539.888-.833 7.013-7.28 3.593-21.953-7.64-32.774-11.232-10.82-26.022-13.69-33.035-6.41-.194.201-.38.408-.557.62-1.662 1.31-3.404 3.086-5.249 5.406-7.013 7.28-3.593 21.954 7.64 32.774 11.232 10.82 26.022 13.69 33.035 6.41 2.043-1.861 3.664-3.584 4.918-5.193Z" fill="color(display-p3 .0314 .0314 .0314)"/><path d="m67.298 116.204-.736-.868-.09.076-.072.093.898.699ZM26.954 76.807l.705.894.092-.073.075-.09-.872-.731Zm-5.249 5.406.82.79.037-.039.034-.042-.891-.709Zm40.675 39.184-.767-.842-.027.025-.026.027.82.79Zm4.986-6.816c-.257.267-.525.518-.804.755l1.472 1.737c.337-.286.661-.59.972-.913l-1.64-1.579Zm-7.61-31.164c5.482 5.28 9.018 11.466 10.344 17.153 1.328 5.7.416 10.741-2.734 14.011l1.64 1.579c3.863-4.01 4.747-9.945 3.31-16.107-1.439-6.174-5.229-12.736-10.98-18.275l-1.58 1.64Zm-31.425-6.44c3.15-3.27 8.153-4.37 13.899-3.255 5.732 1.113 12.046 4.415 17.527 9.695l1.58-1.64c-5.752-5.54-12.45-9.082-18.674-10.29-6.21-1.205-12.109-.1-15.972 3.91l1.64 1.58Zm-.505.561a10.9 10.9 0 0 1 .505-.56l-1.64-1.58a13.4 13.4 0 0 0-.61.677l1.745 1.463Zm-5.23 5.384c1.806-2.271 3.487-3.98 5.063-5.221l-1.41-1.788c-1.748 1.378-3.551 3.223-5.435 5.592l1.782 1.417Zm7.538 31.245c-5.481-5.28-9.017-11.466-10.343-17.153-1.328-5.7-.416-10.741 2.734-14.01l-1.64-1.58c-3.863 4.01-4.747 9.945-3.31 16.107 1.438 6.175 5.229 12.736 10.98 18.276l1.58-1.64Zm31.426 6.44c-3.15 3.27-8.153 4.37-13.899 3.255-5.732-1.112-12.046-4.415-17.527-9.695l-1.58 1.64c5.751 5.54 12.45 9.082 18.674 10.29 6.21 1.205 12.109.1 15.972-3.911l-1.64-1.579Zm4.84-5.102c-1.205 1.545-2.779 3.221-4.787 5.05l1.534 1.683c2.078-1.893 3.746-3.663 5.049-5.334l-1.796-1.399Z" fill="#fff" mask="url(#b)"/><path d="m67.298 116.204-.736-.868-.09.076-.072.093.898.699ZM26.954 76.807l.705.894.092-.073.075-.09-.872-.731Zm-5.249 5.406.82.79.037-.039.034-.042-.891-.709Zm40.675 39.184-.767-.842-.027.025-.026.027.82.79Zm4.986-6.816c-.257.267-.525.518-.804.755l1.472 1.737c.337-.286.661-.59.972-.913l-1.64-1.579Zm-7.61-31.164c5.482 5.28 9.018 11.466 10.344 17.153 1.328 5.7.416 10.741-2.734 14.011l1.64 1.579c3.863-4.01 4.747-9.945 3.31-16.107-1.439-6.174-5.229-12.736-10.98-18.275l-1.58 1.64Zm-31.425-6.44c3.15-3.27 8.153-4.37 13.899-3.255 5.732 1.113 12.046 4.415 17.527 9.695l1.58-1.64c-5.752-5.54-12.45-9.082-18.674-10.29-6.21-1.205-12.109-.1-15.972 3.91l1.64 1.58Zm-.505.561a10.9 10.9 0 0 1 .505-.56l-1.64-1.58a13.4 13.4 0 0 0-.61.677l1.745 1.463Zm-5.23 5.384c1.806-2.271 3.487-3.98 5.063-5.221l-1.41-1.788c-1.748 1.378-3.551 3.223-5.435 5.592l1.782 1.417Zm7.538 31.245c-5.481-5.28-9.017-11.466-10.343-17.153-1.328-5.7-.416-10.741 2.734-14.01l-1.64-1.58c-3.863 4.01-4.747 9.945-3.31 16.107 1.438 6.175 5.229 12.736 10.98 18.276l1.58-1.64Zm31.426 6.44c-3.15 3.27-8.153 4.37-13.899 3.255-5.732-1.112-12.046-4.415-17.527-9.695l-1.58 1.64c5.751 5.54 12.45 9.082 18.674 10.29 6.21 1.205 12.109.1 15.972-3.911l-1.64-1.579Zm4.84-5.102c-1.205 1.545-2.779 3.221-4.787 5.05l1.534 1.683c2.078-1.893 3.746-3.663 5.049-5.334l-1.796-1.399Z" fill="#fff" mask="url(#b)"/><path d="m67.298 116.204-.736-.868-.09.076-.072.093.898.699ZM26.954 76.807l.705.894.092-.073.075-.09-.872-.731Zm-5.249 5.406.82.79.037-.039.034-.042-.891-.709Zm40.675 39.184-.767-.842-.027.025-.026.027.82.79Zm4.986-6.816c-.257.267-.525.518-.804.755l1.472 1.737c.337-.286.661-.59.972-.913l-1.64-1.579Zm-7.61-31.164c5.482 5.28 9.018 11.466 10.344 17.153 1.328 5.7.416 10.741-2.734 14.011l1.64 1.579c3.863-4.01 4.747-9.945 3.31-16.107-1.439-6.174-5.229-12.736-10.98-18.275l-1.58 1.64Zm-31.425-6.44c3.15-3.27 8.153-4.37 13.899-3.255 5.732 1.113 12.046 4.415 17.527 9.695l1.58-1.64c-5.752-5.54-12.45-9.082-18.674-10.29-6.21-1.205-12.109-.1-15.972 3.91l1.64 1.58Zm-.505.561a10.9 10.9 0 0 1 .505-.56l-1.64-1.58a13.4 13.4 0 0 0-.61.677l1.745 1.463Zm-5.23 5.384c1.806-2.271 3.487-3.98 5.063-5.221l-1.41-1.788c-1.748 1.378-3.551 3.223-5.435 5.592l1.782 1.417Zm7.538 31.245c-5.481-5.28-9.017-11.466-10.343-17.153-1.328-5.7-.416-10.741 2.734-14.01l-1.64-1.58c-3.863 4.01-4.747 9.945-3.31 16.107 1.438 6.175 5.229 12.736 10.98 18.276l1.58-1.64Zm31.426 6.44c-3.15 3.27-8.153 4.37-13.899 3.255-5.732-1.112-12.046-4.415-17.527-9.695l-1.58 1.64c5.751 5.54 12.45 9.082 18.674 10.29 6.21 1.205 12.109.1 15.972-3.911l-1.64-1.579Zm4.84-5.102c-1.205 1.545-2.779 3.221-4.787 5.05l1.534 1.683c2.078-1.893 3.746-3.663 5.049-5.334l-1.796-1.399Z" fill="#fff" mask="url(#b)"/><path d="M67.776 114.976c-3.328 3.455-8.555 4.556-14.417 3.419-5.856-1.136-12.265-4.499-17.814-9.844-5.549-5.345-9.148-11.624-10.502-17.433-1.356-5.816-.45-11.08 2.878-14.535 3.328-3.455 8.555-4.557 14.417-3.42 5.856 1.137 12.265 4.5 17.814 9.844 5.548 5.346 9.148 11.625 10.502 17.434 1.356 5.815.45 11.08-2.878 14.535Z" fill="color(display-p3 .0314 .0314 .0314)"/><path d="M67.776 114.976c-3.328 3.455-8.555 4.556-14.417 3.419-5.856-1.136-12.265-4.499-17.814-9.844-5.549-5.345-9.148-11.624-10.502-17.433-1.356-5.816-.45-11.08 2.878-14.535 3.328-3.455 8.555-4.557 14.417-3.42 5.856 1.137 12.265 4.5 17.814 9.844 5.548 5.346 9.148 11.625 10.502 17.434 1.356 5.815.45 11.08-2.878 14.535Z" stroke="#fff" stroke-width="1.138"/><path d="M67.776 114.976c-3.328 3.455-8.555 4.556-14.417 3.419-5.856-1.136-12.265-4.499-17.814-9.844-5.549-5.345-9.148-11.624-10.502-17.433-1.356-5.816-.45-11.08 2.878-14.535 3.328-3.455 8.555-4.557 14.417-3.42 5.856 1.137 12.265 4.5 17.814 9.844 5.548 5.346 9.148 11.625 10.502 17.434 1.356 5.815.45 11.08-2.878 14.535Z" stroke="#fff" stroke-width="1.138"/><path d="M67.776 114.976c-3.328 3.455-8.555 4.556-14.417 3.419-5.856-1.136-12.265-4.499-17.814-9.844-5.549-5.345-9.148-11.624-10.502-17.433-1.356-5.816-.45-11.08 2.878-14.535 3.328-3.455 8.555-4.557 14.417-3.42 5.856 1.137 12.265 4.5 17.814 9.844 5.548 5.346 9.148 11.625 10.502 17.434 1.356 5.815.45 11.08-2.878 14.535Z" stroke="#fff" stroke-width="1.138"/><path d="M63.256 110.623c-2.525 2.621-6.52 3.458-11.04 2.564-4.512-.893-9.468-3.505-13.77-7.648-4.3-4.144-7.095-8.998-8.156-13.475-1.063-4.483-.376-8.506 2.15-11.127 2.525-2.622 6.519-3.459 11.039-2.564 4.513.893 9.468 3.504 13.77 7.648 4.301 4.144 7.096 8.998 8.157 13.475 1.063 4.483.375 8.506-2.15 11.127ZM24.438 89.93l-5.08 5.272m4.997-9.709L18.55 91.52m6.697 2.092-5.08 5.273m6.614-2.343-5.805 6.026m7.339-3.095-5.805 6.026m8.092-2.371-5.804 6.026m9.301-2.613-5.805 6.026" stroke="#fff" stroke-width="1.138"/><path fill-rule="evenodd" clip-rule="evenodd" d="M57.213 96.692a7.264 7.264 0 0 1-.67 3.737 7.509 7.509 0 0 1-2.474 2.937 7.51 7.51 0 0 1-3.6 1.336 7.26 7.26 0 0 1-3.744-.63 7.157 7.157 0 0 1-2.92-2.406 7.154 7.154 0 0 1-1.278-3.562l-.928-11.118a.876.876 0 0 1 .081-.45.905.905 0 0 1 .732-.515.876.876 0 0 1 .45.076l10.152 4.628a7.15 7.15 0 0 1 2.92 2.406 7.15 7.15 0 0 1 1.28 3.561Zm-11.047-7.319L44 88.386a.453.453 0 0 0-.632.445l.761 9.12a5.567 5.567 0 0 0 2.294 4.092 4.863 4.863 0 0 1-.248-.764c-.392-1.667.084-3.502 1.415-5.453.916-1.34 1.23-2.581.93-3.692-.386-1.43-1.693-2.367-2.355-2.76Zm3.69 1.683 2.472 1.126a5.588 5.588 0 0 1 2.283 1.881c.576.819.92 1.779.999 2.784a5.662 5.662 0 0 1-.328 2.448 5.846 5.846 0 0 1-1.343 2.104 5.908 5.908 0 0 1-2.103 1.361 5.806 5.806 0 0 1-2.465.362 3.847 3.847 0 0 1-1.629-2.253c-.277-1.209.12-2.608 1.178-4.16 1.198-1.752 1.586-3.444 1.155-5.028a4.782 4.782 0 0 0-.219-.625Z" fill="#fff"/></svg>