<svg width="105" height="23" fill="none" xmlns="http://www.w3.org/2000/svg" viewBox="0 0 105 23"><path d="M10.293 4.386c-.823-1.902 1.654-2.076 2.02-2.425v3.762l-1.818 2.3c-.133-.698.265-2.561-.202-3.637Z" fill="#000"/><path d="M8.44 6.001c.44-2.222 1.653-2.682 2.02-3.03v4.368L8.642 9.638C8.508 8.94 8.212 7.152 8.44 6Z" fill="#000"/><path fill-rule="evenodd" clip-rule="evenodd" d="M9.044 7.785C7.8 9.05 6.76 10.416 5.994 11.535c0 0 .857-7.482 4.842-9.845.074-.044.147-.085.219-.125-.15.199-.322.444-.518.745-1.21 1.854-1.553 3.322-1.493 5.475Zm3.044-6.65c.015.078.023.164.03.25-.721.51-2.802 2.828-2.624 5.958.862-.824 1.812-1.583 2.828-2.171a3.09 3.09 0 0 1 .98-.503h.003a8.052 8.052 0 0 1 2.04-.616s-.41-3.692-3.257-2.917Z" fill="#fff"/><path d="M15.345 3.789s-.525-4.462-4.51-2.099c-3.984 2.363-4.841 9.844-4.841 9.844" stroke="#000" stroke-width=".475" stroke-miterlimit="10" stroke-linecap="round" stroke-linejoin="round"/><path d="M10.08 19.22c-.462 1.963-3.83 2.76-3.83 1.592 0-.531.536-1.688 1.119-2.792-1.523-1.007-2.204-2.143-2.204-2.143-.14 2.376-2.12 4.617-2.946 3.502-.827-1.114 1.034-3.396 1.034-3.396-3.102.16-2.689-3.98-1.138-4.458 1.551-.478 2.688 2.866 2.688 2.866s.517-.998 1.43-2.362c1.348-2.019 3.56-4.842 6.239-6.431-2.303 1.75-1.729 4.514.05 6.213-1.547-.4-2.446-.71-2.446-.71-.004 0-.776 0-1.138.928-.361.929 2.826 5.334 9.098 4.59.935-.11 1.72-.295 2.374-.531a6.725 6.725 0 0 1-1.598 1.682 7.998 7.998 0 0 1-2.235 1.15c-.41.139-.854.258-1.332.353-2.065.412-3.776.307-5.165-.053Z" fill="#fff"/><path d="M5.974 11.856a31.906 31.906 0 0 0-1.125 1.81 8.704 8.704 0 0 0-.544-1.05c-.247-.402-.559-.812-.928-1.092-.375-.285-.84-.454-1.353-.296-.505.155-.875.591-1.104 1.088a3.467 3.467 0 0 0-.29 1.703c.05.59.26 1.183.699 1.621.33.331.773.555 1.328.63a8.02 8.02 0 0 0-.508.852c-.188.369-.36.792-.425 1.208-.065.417-.03.864.245 1.235.137.184.312.316.517.378.204.063.413.05.61-.009.386-.114.763-.415 1.09-.795.52-.607.98-1.499 1.184-2.47l.093.107c.337.384.833.872 1.502 1.345-.247.477-.48.958-.66 1.39a7.083 7.083 0 0 0-.26.708 2.19 2.19 0 0 0-.105.593c0 .23.086.428.245.575.15.14.346.215.543.25.392.072.884.007 1.362-.152.86-.285 1.83-.928 2.2-1.894 1.382.313 3.046.38 5.015-.013.492-.098.948-.22 1.372-.364a8.307 8.307 0 0 0 2.32-1.195 7.036 7.036 0 0 0 1.672-1.76l.52-.782-.884.319c-.63.226-1.39.407-2.305.515-3.054.362-5.34-.53-6.817-1.61-.74-.543-1.274-1.13-1.597-1.628a2.71 2.71 0 0 1-.321-.642c-.058-.186-.044-.272-.037-.29.235-.602.67-.708.808-.726l.108.036a44.23 44.23 0 0 0 2.3.661l1.156.299-.863-.825c-.845-.806-1.389-1.853-1.46-2.884-.071-1.017.314-2.045 1.383-2.857l-.347-.515c-2.74 1.627-4.984 4.498-6.339 6.526Zm0 0 .258.173-.258-.173Z" stroke="#000" stroke-width=".622"/><ellipse cx="16.758" cy="6.204" rx="2.828" ry="1.818" fill="#fff"/><path d="M19.046 9.234c.323 0 .585.271.585.606a.596.596 0 0 1-.585.606.596.596 0 0 1-.584-.606c0-.335.261-.606.584-.606Zm-.38 8.89c.203.557.706 3.07-1.718 3.225-2.425.154-.466-2.191-.466-2.191a8.08 8.08 0 0 0 2.184-1.035Z" fill="#fff"/><path d="M12.514 5.813c.304-.181.614-.346.93-.491l.002-.001c1.809-.53 3.027 1.578 3.027 1.578s.645-1.544 2.068-1.694c.205-.022.427-.015.665.03 1.268.24 2.133 2.518 1.962 4.464V9.7c-.084.951-.581 2.448-1.234 2.962-.827.213-1.876.305-3.213.069a53.559 53.559 0 0 1-4.158-.904c-1.71-1.645-2.262-4.32-.049-6.014Z" fill="#fff"/><path d="M7.233 18.078c-1.49-1.011-2.157-2.153-2.157-2.153-.138 2.387-2.364 4.254-2.885 3.519-.37-1.378 1.013-3.413 1.013-3.413-3.037.16-2.632-3.998-1.114-4.478 1.518-.48 2.631 2.879 2.631 2.879s.507-1.002 1.4-2.373c1.32-2.028 3.485-4.864 6.107-6.461" stroke="#000" stroke-width=".622" stroke-miterlimit="10" stroke-linecap="round" stroke-linejoin="round"/><path d="M13.397 5.193a6.582 6.582 0 0 1 1.922-.713c1.319-.251 2.345.016 3.143.576" stroke="#000" stroke-width=".475" stroke-miterlimit="10" stroke-linecap="round" stroke-linejoin="round"/><path d="M8.88 15.699s-.742 1.193-1.417 2.46c-.563 1.058-1.08 2.167-1.08 2.676 0 1.118 3.253.356 3.699-1.526.445-1.881 0-3.61 0-3.61" stroke="#000" stroke-width=".622" stroke-miterlimit="10" stroke-linecap="round" stroke-linejoin="round"/><path d="M16.482 19.157s-1.959 2.346.466 2.192c2.424-.155 1.921-2.669 1.718-3.226" stroke="#000" stroke-width=".475" stroke-miterlimit="10" stroke-linecap="round" stroke-linejoin="round"/><path d="M19.934 12.87c.653-.529 1.15-2.067 1.234-3.044v-.001c.17-2-.694-4.343-1.962-4.589a2.219 2.219 0 0 0-.664-.03c-1.424.154-2.07 1.74-2.07 1.74s-1.217-2.167-3.026-1.622l-.003.001c-.315.15-.625.319-.928.505-2.214 1.742-1.662 4.49.048 6.181" stroke="#000" stroke-width=".622" stroke-miterlimit="10" stroke-linecap="round" stroke-linejoin="round"/><path d="M12.228 5.597a4.514 4.514 0 0 1 1.169-.404" stroke="#000" stroke-width=".475" stroke-miterlimit="10" stroke-linecap="round" stroke-linejoin="round"/><path d="M20.373 15.894c-.66.232-1.452.414-2.396.523-6.333.732-10.29-3.188-9.559-5.015.365-.913 1.521-.418 1.521-.418s1.08 1.001 6.017 1.139c5.193 0 5.858-1.444 6.623-.721.764.724.891 2.834-2.206 4.492Z" fill="#fff" stroke="#000" stroke-width=".622" stroke-miterlimit="10" stroke-linecap="round" stroke-linejoin="round"/><path d="M10.734 13.035s2.171 1.405 5.69 1.51c3.518.107 4.736-1.062 4.736-1.062" stroke="#000" stroke-width=".475" stroke-miterlimit="10" stroke-linecap="round" stroke-linejoin="round"/><path d="M13.629 6.172c1.106-.215 2.223.831 2.496 2.337.272 1.505-.404 2.9-1.51 3.115-1.106.215-2.224-.83-2.496-2.336-.272-1.506.404-2.9 1.51-3.116Zm5.655.495c1.002.342 1.476 1.686 1.058 3.003-.418 1.316-1.57 2.106-2.571 1.764-1.002-.342-1.476-1.687-1.058-3.003.418-1.316 1.569-2.106 2.57-1.764Z" fill="#fff"/><path d="M14.378 7.785c.602 0 1.09.675 1.09 1.508s-.488 1.508-1.09 1.508c-.602 0-1.09-.675-1.09-1.508s.488-1.508 1.09-1.508Z" fill="#000"/><path d="M13.287 9.67a.37.37 0 0 1 .364-.377c.2 0 .364.169.364.377a.37.37 0 0 1-.364.377.37.37 0 0 1-.364-.377Z" fill="#fff"/><path d="M18.74 7.785c.602 0 1.09.675 1.09 1.508s-.488 1.508-1.09 1.508c-.602 0-1.09-.675-1.09-1.508s.488-1.508 1.09-1.508Z" fill="#000"/><path d="M18.376 9.67a.37.37 0 0 1 .364-.377c.2 0 .363.169.363.377a.37.37 0 0 1-.363.377.37.37 0 0 1-.364-.377Zm76.235-.284c-.92.747-1.62 1.857-2.101 3.33a7.926 7.926 0 0 0-.382 2.426c0 1.434.468 2.15 1.403 2.15.476 0 .97-.196 1.479-.589.51-.393.966-.902 1.37-1.528.41-.632.745-1.379 1.005-2.243a8.774 8.774 0 0 0 .399-2.591c0-1.218-.216-2.085-.648-2.6-.432-.515-1.157-.772-2.176-.772-.565 0-1.174.06-1.827.182a13.13 13.13 0 0 0-1.661.407 81.33 81.33 0 0 0-1.213.399c-.36.122-.568.183-.623.183-.205 0-.307-.083-.307-.25 0-.132.135-.304.407-.514.276-.216.658-.44 1.146-.673.487-.238 1.027-.46 1.62-.665 1.378-.476 2.726-.714 4.044-.714 2.53 0 4.319.737 5.366 2.21.614.869.922 1.943.922 3.222 0 .97-.169 1.88-.507 2.733a6.929 6.929 0 0 1-1.412 2.226 8.993 8.993 0 0 1-2.126 1.644c-1.645.925-3.508 1.387-5.59 1.387-4.075 0-6.113-1.392-6.113-4.178 0-.78.169-1.528.507-2.242a6.2 6.2 0 0 1 1.329-1.869 9.723 9.723 0 0 1 1.86-1.395c1.395-.798 2.796-1.196 4.203-1.196.221 0 .38.041.473.124.1.078.15.158.15.241a.518.518 0 0 1-.042.216.703.703 0 0 1-.141.2 7.752 7.752 0 0 1-.191.199c-.138.122-.346.302-.623.54ZM64.12 8.223l-.98.2a.59.59 0 0 1-.274-.05c-.06-.034-.091-.114-.091-.242 0-.199.25-.514.748-.946.498-.438 1.198-.828 2.1-1.172.903-.348 1.7-.523 2.393-.523.698 0 1.174.144 1.428.432.255.283.383.748.383 1.395 0 .084-.011.225-.034.424 2.01-1.617 3.857-2.425 5.54-2.425.792 0 1.393.18 1.803.54.41.36.614.869.614 1.528v.075c1.833-1.429 3.472-2.143 4.917-2.143.82 0 1.465.194 1.936.581.47.382.706.9.706 1.553 0 .648-.144 1.393-.432 2.235a16.755 16.755 0 0 1-.93 2.259c-.909 1.788-1.363 2.973-1.363 3.555 0 .37.111.664.332.88.222.21.455.338.698.382.244.039.402.07.474.091.077.017.163.045.257.084.177.066.266.18.266.34 0 .393-.43.737-1.288 1.03-.852.293-1.904.44-3.156.44-1.66 0-2.491-.617-2.491-1.852 0-.548.138-1.232.415-2.051.277-.825.581-1.59.913-2.293.88-1.877 1.321-3.131 1.321-3.762a.78.78 0 0 0-.207-.565c-.133-.144-.344-.216-.632-.216-.504 0-1.143.2-1.918.598-.216.842-.634 2.002-1.255 3.48-.62 1.473-1.063 2.65-1.329 3.53-.265.875-.415 1.628-.448 2.26a.808.808 0 0 1-.158.456.412.412 0 0 1-.349.183l-3.372.05c-.592 0-.955-.1-1.088-.3-.06-.094-.091-.232-.091-.415 0-.183.063-.54.19-1.071.128-.532.375-1.271.74-2.218.371-.952.723-1.78 1.055-2.483.83-1.778 1.246-2.885 1.246-3.323 0-.503-.305-.755-.914-.755s-1.34.238-2.193.714c-.188.714-.54 1.7-1.055 2.957a117.96 117.96 0 0 0-1.337 3.422c-.376 1.03-.564 1.802-.564 2.317l.024.548c0 .172-.094.308-.282.407-.188.1-.385.15-.59.15l-3.081.05c-.615 0-.989-.106-1.121-.316-.061-.105-.092-.266-.092-.482 0-.221.047-.537.141-.947.094-.41.394-1.21.897-2.4.51-1.196.972-2.306 1.387-3.33.421-1.025.632-1.703.632-2.036 0-.332-.036-.553-.108-.664-.072-.11-.183-.166-.332-.166Z" fill="#fff"/><path d="M56.346 10.781c.21 0 .316.163.316.49 0 .321-.105.598-.316.83-.21.233-.44.358-.689.374-.244.017-.498.045-.764.083-.26.04-.56.095-.897.167a4.782 4.782 0 0 0-1.686.68c-.52.333-.781.787-.781 1.363 0 .382.094.717.282 1.005.194.282.446.5.756.656.598.299 1.26.448 1.985.448 1.113 0 2.536-.238 4.27-.714a.988.988 0 0 1 .257-.041c.21 0 .316.105.316.315 0 .388-.396.764-1.188 1.13-.786.365-1.747.653-2.882.864a17.75 17.75 0 0 1-3.223.315c-1.008 0-1.91-.063-2.708-.19a9.418 9.418 0 0 1-2.118-.574c-.614-.26-1.093-.604-1.437-1.03a2.347 2.347 0 0 1-.506-1.487c0-.559.166-1.06.498-1.503a3.91 3.91 0 0 1 1.33-1.105 9.23 9.23 0 0 1 1.91-.739c1.367-.365 2.876-.548 4.526-.548-1.174-.06-2.051-.16-2.633-.299a11.983 11.983 0 0 1-1.37-.399 3.818 3.818 0 0 1-.84-.448c-.52-.377-.78-.847-.78-1.412s.21-1.085.631-1.562c.427-.481.989-.875 1.686-1.179 1.446-.631 3.123-.947 5.034-.947 2.597 0 4.38.29 5.349.872a.62.62 0 0 1 .315.565c0 .244-.182.648-.548 1.213-.36.564-.653.955-.88 1.17-.222.217-.43.325-.623.325a.756.756 0 0 1-.515-.208 1.452 1.452 0 0 1-.366-.515c-.603-1.357-1.534-2.035-2.79-2.035-.731 0-1.349.2-1.853.598-.498.393-.747.875-.747 1.445 0 .565.288 1.052.864 1.462.581.41 1.287.615 2.118.615l.697-.05Z" fill="#1954FF"/><path d="m30.1 8.223-.98.2a.59.59 0 0 1-.274-.05c-.061-.034-.091-.103-.091-.208 0-.255.257-.59.772-1.005.515-.416 1.218-.798 2.11-1.147.897-.348 1.702-.523 2.417-.523.72 0 1.232.125 1.536.374.31.25.465.734.465 1.453l-.025.374c1.102-.852 2.09-1.462 2.966-1.827.874-.365 1.73-.548 2.566-.548.842 0 1.49.177 1.944.531.454.35.68.856.68 1.52 0 .681-.32 1.772-.963 3.273-.266.62-.531 1.235-.797 1.844-.643 1.484-.964 2.45-.964 2.898 0 .798.396 1.266 1.188 1.404.427.072.673.152.74.24a.405.405 0 0 1 .099.25c0 .393-.43.737-1.287 1.03-.853.293-1.808.44-2.866.44-2.082 0-3.123-.617-3.123-1.852 0-.864.3-2.002.897-3.414.25-.592.498-1.17.748-1.736.598-1.356.897-2.303.897-2.84 0-.543-.418-.814-1.255-.814-.487 0-1.035.172-1.644.515-.271 1.069-.855 2.658-1.753 4.767-.819 1.916-1.229 3.262-1.229 4.037l.025.548c0 .172-.094.308-.282.407-.188.1-.385.15-.59.15l-3.33.05c-.615 0-.989-.106-1.122-.316-.06-.105-.091-.266-.091-.482 0-.221.047-.534.141-.938.094-.41.393-1.21.897-2.4.51-1.197.972-2.31 1.387-3.34.42-1.03.631-1.708.631-2.035 0-.332-.036-.553-.108-.664-.072-.11-.182-.166-.332-.166Z" fill="#fff"/></svg>