<svg width="54" height="54" viewBox="0 0 54 54" fill="none" xmlns="http://www.w3.org/2000/svg">
<path d="M13.6667 8.33333H7C5.75749 8.33333 5.13623 8.33333 4.64618 8.50249C3.99277 8.72803 3.47364 9.16064 3.20299 9.70515C3 10.1135 3 10.6312 3 11.6667V12.7778C3 14.8444 3 15.8777 3.27259 16.7255C4.01233 19.0261 6.16871 20.8231 8.92945 21.4395C9.94678 21.6667 11.1867 21.6667 13.6667 21.6667M40.3333 8.33333H47C48.2425 8.33333 48.8638 8.33333 49.3538 8.50249C50.0072 8.72803 50.5264 9.16064 50.797 9.70515C51 10.1135 51 10.6313 51 11.6667V12.7778C51 14.8444 51 15.8777 50.7274 16.7255C49.9877 19.0261 47.8313 20.8231 45.0706 21.4395C44.0532 21.6667 42.8133 21.6667 40.3333 21.6667M27 35V40.3333M27 32.3333C19.6362 32.3333 13.6667 26.272 13.6667 18.7949V6.25926C13.6667 5.32545 13.6667 4.85854 13.8007 4.48467C14.0253 3.85792 14.5116 3.3642 15.1288 3.13608C15.4971 3 15.9569 3 16.8765 3H37.1235C38.0431 3 38.5029 3 38.8712 3.13608C39.4884 3.3642 39.9747 3.85792 40.1993 4.48467C40.3333 4.85854 40.3333 5.32545 40.3333 6.25926V18.7949C40.3333 26.272 34.3638 32.3333 27 32.3333ZM17.2815 51H36.7185C37.2422 51 37.6667 50.4694 37.6667 49.8148C37.6667 44.5783 34.2707 40.3333 30.0815 40.3333H23.9185C19.7293 40.3333 16.3333 44.5783 16.3333 49.8148C16.3333 50.4694 16.7578 51 17.2815 51Z" stroke="url(#paint0_linear_1_813)" stroke-width="3.5" stroke-linecap="round" stroke-linejoin="round"/>
<defs>
<linearGradient id="paint0_linear_1_813" x1="-5.88889" y1="64.3333" x2="59.8889" y2="13.6667" gradientUnits="userSpaceOnUse">
<stop stop-color="#0F302E"/>
<stop offset="1" stop-color="#15E0D2"/>
</linearGradient>
</defs>
</svg>
