<svg width="16" height="16" fill="none" xmlns="http://www.w3.org/2000/svg" viewBox="0 0 16 16"><path d="m7.072 12.617-3.225 1.691a.719.719 0 0 1-1.042-.758l.615-3.579a.719.719 0 0 0-.207-.637L.608 6.801a.719.719 0 0 1 .398-1.226l3.603-.523a.719.719 0 0 0 .54-.392L6.763 1.4a.719.719 0 0 1 1.288 0l1.613 3.26a.719.719 0 0 0 .54.392l3.603.523a.719.719 0 0 1 .398 1.226L11.6 9.334a.718.718 0 0 0-.208.637l.615 3.579a.719.719 0 0 1-1.042.758L7.74 12.617a.72.72 0 0 0-.668 0Z" fill="color(display-p3 .1255 .1569 .2353)"/></svg>