<svg width="24" height="24" fill="none" xmlns="http://www.w3.org/2000/svg" viewBox="0 0 24 24"><rect width="24" height="24" rx="12" fill="#6BCDF7"/><path fill-rule="evenodd" clip-rule="evenodd" d="M7.835 16.717a4.864 4.864 0 0 0 1.754 1.836 4.673 4.673 0 0 0 2.413.674c.847 0 1.68-.233 2.412-.674a4.863 4.863 0 0 0 1.754-1.836 5.14 5.14 0 0 0 .652-2.51 5.14 5.14 0 0 0-.652-2.51l-3.664-6.623a.586.586 0 0 0-.212-.221.563.563 0 0 0-.792.22l-3.665 6.624a5.14 5.14 0 0 0-.652 2.51c0 .88.225 1.747.652 2.51Zm3.134-8.492.782-1.412a.293.293 0 0 1 .105-.111.282.282 0 0 1 .397.11l3.005 5.433a4.033 4.033 0 0 1 .311 3.21 3.486 3.486 0 0 0-.154-.527c-.415-1.093-1.353-1.937-2.79-2.508-.988-.39-1.619-.966-1.875-1.71-.33-.957.015-2.002.22-2.485Zm-1.332 2.408-.892 1.612a4.018 4.018 0 0 0-.51 1.962c0 .689.176 1.365.51 1.962.27.493.642.92 1.09 1.247.447.329.96.551 1.5.653a3.63 3.63 0 0 0 1.626-.067 3.703 3.703 0 0 0 1.446-.772c.232-.614.24-1.293.023-1.913-.305-.79-1.039-1.42-2.181-1.874-1.292-.512-2.131-1.31-2.494-2.372a3.447 3.447 0 0 1-.118-.438Z" fill="#fff"/></svg>