<svg width="50" height="50" fill="none" xmlns="http://www.w3.org/2000/svg" viewBox="0 0 50 50"><path d="M25 49.96a24.476 24.476 0 0 0 24.535-24.536A24.476 24.476 0 0 0 25 .89 24.476 24.476 0 0 0 .465 25.424 24.476 24.476 0 0 0 25 49.96Z" fill="#2775CA"/><path d="M31.747 29.309c0-3.578-2.147-4.805-6.44-5.316-3.067-.409-3.68-1.226-3.68-2.658 0-1.431 1.022-2.351 3.066-2.351 1.84 0 2.863.613 3.374 2.147a.769.769 0 0 0 .715.51h1.636a.699.699 0 0 0 .716-.715v-.102a5.107 5.107 0 0 0-4.6-4.191v-2.454c0-.409-.307-.715-.818-.818h-1.534c-.409 0-.715.307-.818.818v2.351c-3.067.41-5.009 2.454-5.009 5.01 0 3.373 2.045 4.702 6.338 5.213 2.863.512 3.783 1.125 3.783 2.76 0 1.636-1.431 2.76-3.374 2.76-2.658 0-3.578-1.124-3.884-2.657-.103-.41-.41-.614-.716-.614h-1.738a.699.699 0 0 0-.715.716v.102c.408 2.556 2.044 4.396 5.418 4.907v2.454c0 .408.306.715.817.817h1.534c.409 0 .715-.306.818-.817v-2.454c3.067-.511 5.111-2.658 5.111-5.418Z" fill="#fff"/><path fill-rule="evenodd" clip-rule="evenodd" d="M10.688 20.415c-2.965 7.872 1.124 16.766 9.098 19.628.307.205.614.613.614.92v1.431c0 .205 0 .307-.103.41-.102.408-.51.612-.92.408-5.724-1.84-10.12-6.236-11.96-11.96C4.35 21.54 9.666 11.214 19.377 8.147c.103-.102.307-.102.41-.102.408.102.613.408.613.817v1.431c0 .512-.205.819-.614 1.023-4.19 1.533-7.565 4.805-9.098 9.098ZM29.703 8.557c.102-.41.51-.614.92-.41 5.622 1.84 10.12 6.237 11.96 12.064 3.067 9.711-2.249 20.037-11.96 23.103-.103.102-.307.102-.41.102-.408-.102-.613-.408-.613-.817v-1.431c0-.512.205-.818.614-1.023 4.19-1.533 7.565-4.804 9.098-9.098 2.965-7.872-1.124-16.766-9.098-19.628-.307-.205-.614-.613-.614-1.022V8.966c0-.205 0-.307.103-.41Z" fill="#fff"/></svg>