<svg width="16" height="16" fill="none" xmlns="http://www.w3.org/2000/svg" viewBox="0 0 16 16"><path d="M8.667 6h-4m9.999 1.314v1.373a.684.684 0 0 1-.667.68h-1.306c-.72 0-1.38-.527-1.44-1.247-.04-.42.12-.813.4-1.086.246-.254.586-.4.96-.4h1.386a.684.684 0 0 1 .667.68Z" stroke="#E1E1E1" stroke-width="1.091" stroke-linecap="round" stroke-linejoin="round"/><path d="M11.652 7.034a1.34 1.34 0 0 0-.4 1.087c.06.72.72 1.246 1.44 1.246H14v.967c0 2-1.333 3.333-3.333 3.333h-6c-2 0-3.333-1.333-3.333-3.333V5.667c0-1.813 1.093-3.08 2.793-3.293a3.55 3.55 0 0 1 .54-.04h6c.173 0 .34.007.5.033 1.72.2 2.833 1.474 2.833 3.3v.967h-1.386c-.374 0-.714.147-.96.4Z" stroke="#E1E1E1" stroke-width="1.091" stroke-linecap="round" stroke-linejoin="round"/></svg>