<svg width="194" height="8" fill="none" xmlns="http://www.w3.org/2000/svg" viewBox="0 0 194 8"><path d="M.646 3.646a.5.5 0 0 0 0 .708l3.182 3.182a.5.5 0 1 0 .708-.708L1.707 4l2.829-2.828a.5.5 0 1 0-.708-.708L.646 3.646ZM194 3.5h-.791v1H194v-1Zm-2.373 0h-1.582v1h1.582v-1Zm-3.164 0h-1.582v1h1.582v-1Zm-3.164 0h-1.582v1h1.582v-1Zm-3.164 0h-1.582v1h1.582v-1Zm-3.164 0h-1.582v1h1.582v-1Zm-3.164 0h-1.582v1h1.582v-1Zm-3.164 0h-1.582v1h1.582v-1Zm-3.163 0h-1.582v1h1.582v-1Zm-3.164 0h-1.582v1h1.582v-1Zm-3.164 0h-1.582v1h1.582v-1Zm-3.164 0h-1.582v1h1.582v-1Zm-3.164 0h-1.582v1h1.582v-1Zm-3.164 0h-1.582v1h1.582v-1Zm-3.164 0h-1.582v1h1.582v-1Zm-3.164 0h-1.582v1h1.582v-1Zm-3.164 0h-1.582v1h1.582v-1Zm-3.164 0h-1.582v1h1.582v-1Zm-3.164 0h-1.582v1h1.582v-1Zm-3.164 0h-1.582v1h1.582v-1Zm-3.164 0h-1.582v1h1.582v-1Zm-3.164 0h-1.582v1h1.582v-1Zm-3.164 0h-1.582v1h1.582v-1Zm-3.163 0h-1.582v1h1.582v-1Zm-3.164 0h-1.582v1h1.582v-1Zm-3.164 0h-1.582v1h1.582v-1Zm-3.164 0h-1.582v1h1.582v-1Zm-3.164 0h-1.582v1h1.582v-1Zm-3.164 0h-1.582v1h1.582v-1Zm-3.164 0h-1.582v1h1.582v-1Zm-3.164 0H98.29v1h1.582v-1Zm-3.164 0h-1.582v1h1.582v-1Zm-3.164 0h-1.582v1h1.582v-1Zm-3.164 0H88.8v1h1.582v-1Zm-3.164 0h-1.582v1h1.582v-1Zm-3.164 0h-1.582v1h1.582v-1Zm-3.164 0h-1.582v1h1.582v-1Zm-3.164 0h-1.582v1h1.582v-1Zm-3.164 0H72.98v1h1.582v-1Zm-3.164 0h-1.582v1h1.582v-1Zm-3.163 0h-1.582v1h1.582v-1Zm-3.164 0h-1.582v1h1.582v-1Zm-3.164 0h-1.582v1h1.582v-1Zm-3.164 0H57.16v1h1.582v-1Zm-3.164 0h-1.582v1h1.582v-1Zm-3.164 0h-1.582v1h1.582v-1Zm-3.164 0h-1.582v1h1.582v-1Zm-3.164 0h-1.582v1h1.582v-1Zm-3.164 0H41.34v1h1.582v-1Zm-3.164 0h-1.582v1h1.582v-1Zm-3.164 0h-1.582v1h1.582v-1Zm-3.164 0h-1.582v1h1.582v-1Zm-3.164 0h-1.582v1h1.582v-1Zm-3.164 0H25.52v1h1.582v-1Zm-3.164 0h-1.582v1h1.582v-1Zm-3.164 0h-1.582v1h1.582v-1Zm-3.164 0h-1.58v1h1.581v-1Zm-3.163 0h-1.582v1h1.582v-1Zm-3.164 0H9.7v1h1.582v-1Zm-3.164 0H6.537v1h1.582v-1Zm-3.164 0H3.373v1h1.582v-1Zm-3.164 0H1v1h.79v-1Z" fill="url(#a)"/><defs><linearGradient id="a" x1="194" y1="3.5" x2="1" y2="3.5" gradientUnits="userSpaceOnUse"><stop stop-color="#fff" stop-opacity="0"/><stop offset="1" stop-color="#fff"/></linearGradient></defs></svg>