<svg width="107" height="97" viewBox="0 0 107 97" fill="none" xmlns="http://www.w3.org/2000/svg">
<g filter="url(#filter0_d_1_739)">
<path fill-rule="evenodd" clip-rule="evenodd" d="M84.4575 57.0426C84.4575 43.3647 67.3633 32.2766 46.2766 32.2766C25.1899 32.2766 8.09576 43.3647 8.09576 57.0426C8.09576 59.1143 8.09576 61.1623 8.09576 63.234C8.09576 76.9119 25.1899 88 46.2766 88C67.3633 88 84.4575 76.9119 84.4575 63.234C84.4575 61.1623 84.4575 59.1143 84.4575 57.0426Z" fill="#7CC0F9" stroke="#78B3E8"/>
<ellipse cx="46.2766" cy="57.0426" rx="38.1809" ry="24.766" fill="#A0D3FB" stroke="#78B3E8"/>
<ellipse cx="46.2766" cy="57.0425" rx="34.0532" ry="21.6702" fill="#A0D3FB" stroke="#78B3E8" stroke-linecap="round" stroke-linejoin="round" stroke-dasharray="6 6"/>
<ellipse cx="46.2766" cy="57.0426" rx="29.9255" ry="19.6064" fill="#78B5EA"/>
<ellipse cx="46.2766" cy="57.0426" rx="27.8617" ry="17.5426" fill="#A0D3FB"/>
<path fill-rule="evenodd" clip-rule="evenodd" d="M37.2103 48.5751C35.5982 49.5403 34.2652 50.9284 33.3481 52.5971C32.431 54.2658 31.9626 56.1553 31.991 58.0718C32.0193 59.9883 32.5434 61.863 33.5095 63.5039C34.4757 65.1448 35.8491 66.4928 37.4891 67.4098C39.1325 68.3515 40.9881 68.8326 42.8692 68.8048C44.7504 68.7769 46.5909 68.2411 48.2058 67.2512L62.2218 58.7592C62.416 58.6429 62.5766 58.4756 62.6871 58.2746C62.7975 58.0735 62.854 57.8459 62.8505 57.615C62.8471 57.3841 62.784 57.1583 62.6676 56.9606C62.5512 56.7629 62.3858 56.6005 62.1882 56.4899L47.927 48.4165C46.2836 47.4748 44.428 46.9937 42.5468 47.0215C40.6656 47.0494 38.8251 47.5852 37.2103 48.5751ZM55.4441 55.3909L58.4848 57.1122C58.5836 57.1675 58.6663 57.2487 58.7245 57.3475C58.7827 57.4464 58.8143 57.5593 58.816 57.6747C58.8177 57.7902 58.7895 57.904 58.7342 58.0045C58.679 58.105 58.5987 58.1887 58.5016 58.2468L47.0051 65.2123C45.9859 65.8374 44.8486 66.2324 43.6688 66.3711C42.489 66.5097 41.2937 66.3889 40.1625 66.0166C40.5449 65.9264 40.9195 65.8046 41.2827 65.6523C43.6029 64.6794 45.3726 62.5309 46.5429 59.2652C47.3446 57.0202 48.5511 55.5767 50.1294 54.9741C52.1628 54.198 54.4044 54.9441 55.4441 55.3909ZM50.2591 52.4557L46.7872 50.4901C45.5026 49.7539 44.0522 49.3778 42.5817 49.3996C41.1112 49.4214 39.6725 49.8402 38.4102 50.614C37.3663 51.2399 36.4695 52.0942 35.7836 53.1163C35.0976 54.1383 34.6394 55.303 34.4413 56.5277C34.2433 57.7525 34.3103 59.0071 34.6376 60.2027C34.965 61.3982 35.5446 62.5054 36.3353 63.4454C37.6525 63.9519 39.1037 63.9492 40.4183 63.4378C42.0944 62.7237 43.4161 61.0446 44.3475 58.4475C45.3957 55.5119 47.0715 53.5901 49.327 52.7362C49.6311 52.6211 49.9426 52.5274 50.2591 52.4557Z" fill="#7ABFF9"/>
<path fill-rule="evenodd" clip-rule="evenodd" d="M37.2103 46.5113C35.5982 47.4765 34.2652 48.8645 33.3481 50.5333C32.431 52.202 31.9626 54.0914 31.991 56.008C32.0193 57.9245 32.5434 59.7992 33.5095 61.4401C34.4757 63.0809 35.8491 64.4289 37.4891 65.346C39.1325 66.2877 40.9881 66.7688 42.8692 66.7409C44.7504 66.7131 46.5909 66.1773 48.2058 65.1874L62.2218 56.6954C62.416 56.5791 62.5766 56.4118 62.6871 56.2108C62.7975 56.0097 62.854 55.7821 62.8505 55.5512C62.8471 55.3203 62.784 55.0944 62.6676 54.8967C62.5512 54.699 62.3858 54.5366 62.1882 54.4261L47.927 46.3527C46.2836 45.411 44.428 44.9299 42.5468 44.9577C40.6656 44.9856 38.8251 45.5214 37.2103 46.5113ZM55.4441 53.3271L58.4848 55.0484C58.5836 55.1036 58.6663 55.1848 58.7245 55.2837C58.7827 55.3825 58.8143 55.4955 58.816 55.6109C58.8177 55.7264 58.7895 55.8402 58.7342 55.9407C58.679 56.0412 58.5987 56.1248 58.5016 56.183L47.0051 63.1484C45.9859 63.7735 44.8486 64.1685 43.6688 64.3072C42.489 64.4459 41.2937 64.3251 40.1625 63.9527C40.5449 63.8625 40.9195 63.7407 41.2827 63.5885C43.6029 62.6155 45.3726 60.467 46.5429 57.2014C47.3446 54.9563 48.5511 53.5129 50.1294 52.9103C52.1628 52.1342 54.4044 52.8802 55.4441 53.3271ZM50.2591 50.3918L46.7872 48.4262C45.5026 47.6901 44.0522 47.314 42.5817 47.3358C41.1112 47.3575 39.6725 47.7764 38.4102 48.5502C37.3663 49.1761 36.4695 50.0304 35.7836 51.0524C35.0976 52.0745 34.6394 53.2392 34.4413 54.4639C34.2433 55.6886 34.3103 56.9433 34.6376 58.1389C34.965 59.3344 35.5446 60.4415 36.3353 61.3816C37.6525 61.888 39.1037 61.8853 40.4183 61.374C42.0944 60.6599 43.4161 58.9808 44.3475 56.3837C45.3957 53.4481 47.0715 51.5263 49.327 50.6723C49.6311 50.5573 49.9426 50.4636 50.2591 50.3918Z" fill="white"/>
<path d="M10.6755 66.3298V72.0053" stroke="#77B2E9" stroke-linecap="round"/>
<path d="M14.2872 70.4574V76.133" stroke="#77B2E9" stroke-linecap="round"/>
<path d="M18.4149 74.5851V80.2606" stroke="#77B2E9" stroke-linecap="round"/>
<path d="M23.5745 77.6808V83.3564" stroke="#77B2E9" stroke-linecap="round"/>
<path d="M27.7021 78.7128V84.3883" stroke="#77B2E9" stroke-linecap="round"/>
<path d="M32.8617 80.7766V86.4521" stroke="#77B2E9" stroke-linecap="round"/>
<path d="M39.0532 81.8085V87.484" stroke="#77B2E9" stroke-linecap="round"/>
<path d="M45.2447 81.8085V87.484" stroke="#77B2E9" stroke-linecap="round"/>
<path d="M51.4362 81.8085V87.484" stroke="#77B2E9" stroke-linecap="round"/>
<path d="M58.6595 80.7766V86.4521" stroke="#77B2E9" stroke-linecap="round"/>
<path d="M65.883 78.7128V84.3883" stroke="#77B2E9" stroke-linecap="round"/>
<path d="M72.0745 75.617V81.2926" stroke="#77B2E9" stroke-linecap="round"/>
<path d="M79.2979 69.4255V75.1011" stroke="#77B2E9" stroke-linecap="round"/>
<path d="M83.4255 64.266V68.3936" stroke="#77B2E9" stroke-linecap="round"/>
<path d="M71.0426 57.0426C71.0426 52.0998 67.6488 47.6642 62.2713 44.6384" stroke="white" stroke-linecap="round" stroke-linejoin="round" stroke-dasharray="4 4"/>
<path fill-rule="evenodd" clip-rule="evenodd" d="M102 42.5957C102 28.9179 84.9058 17.8298 63.8192 17.8298C42.7325 17.8298 25.6383 28.9179 25.6383 42.5957C25.6383 44.6674 25.6383 46.7155 25.6383 48.7872C25.6383 62.4651 42.7325 73.5532 63.8192 73.5532C84.9058 73.5532 102 62.4651 102 48.7872C102 46.7155 102 44.6674 102 42.5957Z" fill="#7CC0F9" stroke="#78B3E8"/>
<ellipse cx="63.8192" cy="42.5957" rx="38.1809" ry="24.766" fill="#A0D3FB" stroke="#78B3E8"/>
<ellipse cx="63.8191" cy="42.5957" rx="34.0532" ry="21.6702" fill="#A0D3FB" stroke="#78B3E8" stroke-linecap="round" stroke-linejoin="round" stroke-dasharray="6 6"/>
<ellipse cx="63.8191" cy="42.5957" rx="29.9255" ry="19.6064" fill="#78B5EA"/>
<ellipse cx="63.8192" cy="42.5957" rx="27.8617" ry="17.5426" fill="#A0D3FB"/>
<path fill-rule="evenodd" clip-rule="evenodd" d="M54.7529 34.1283C53.1408 35.0935 51.8078 36.4816 50.8907 38.1503C49.9736 39.819 49.5052 41.7085 49.5336 43.625C49.5619 45.5415 50.086 47.4162 51.0522 49.0571C52.0183 50.698 53.3917 52.046 55.0317 52.963C56.6751 53.9047 58.5307 54.3858 60.4118 54.358C62.293 54.3301 64.1335 53.7943 65.7484 52.8044L79.7644 44.3124C79.9586 44.1961 80.1192 44.0288 80.2297 43.8278C80.3401 43.6267 80.3966 43.3991 80.3931 43.1682C80.3897 42.9373 80.3266 42.7114 80.2102 42.5138C80.0938 42.3161 79.9284 42.1536 79.7308 42.0431L65.4696 33.9697C63.8262 33.028 61.9706 32.5469 60.0894 32.5747C58.2082 32.6026 56.3677 33.1384 54.7529 34.1283ZM72.9867 40.9441L76.0274 42.6654C76.1262 42.7206 76.2089 42.8019 76.2671 42.9007C76.3253 42.9995 76.3569 43.1125 76.3586 43.2279C76.3603 43.3434 76.3321 43.4572 76.2768 43.5577C76.2216 43.6582 76.1413 43.7419 76.0442 43.8L64.5477 50.7655C63.5285 51.3906 62.3912 51.7856 61.2114 51.9242C60.0316 52.0629 58.8363 51.9421 57.7052 51.5697C58.0875 51.4796 58.4621 51.3578 58.8253 51.2055C61.1455 50.2325 62.9152 48.0841 64.0855 44.8184C64.8872 42.5733 66.0937 41.1299 67.672 40.5273C69.7054 39.7512 71.947 40.4972 72.9867 40.9441ZM67.8017 38.0089L64.3298 36.0432C63.0452 35.3071 61.5948 34.931 60.1243 34.9528C58.6538 34.9745 57.2151 35.3934 55.9528 36.1672C54.9089 36.7931 54.0121 37.6474 53.3262 38.6695C52.6402 39.6915 52.182 40.8562 51.9839 42.0809C51.7859 43.3057 51.8529 44.5603 52.1803 45.7559C52.5076 46.9514 53.0872 48.0585 53.8779 48.9986C55.1951 49.5051 56.6463 49.5024 57.9609 48.991C59.637 48.2769 60.9587 46.5978 61.8901 44.0007C62.9383 41.0651 64.6141 39.1433 66.8696 38.2893C67.1737 38.1743 67.4852 38.0806 67.8017 38.0089Z" fill="#7ABFF9"/>
<path fill-rule="evenodd" clip-rule="evenodd" d="M54.7529 32.0645C53.1408 33.0297 51.8078 34.4177 50.8907 36.0865C49.9736 37.7552 49.5052 39.6446 49.5336 41.5612C49.5619 43.4777 50.086 45.3524 51.0522 46.9933C52.0183 48.6341 53.3917 49.9821 55.0317 50.8992C56.6751 51.8409 58.5307 52.322 60.4118 52.2941C62.293 52.2663 64.1335 51.7305 65.7484 50.7406L79.7644 42.2486C79.9586 42.1323 80.1192 41.965 80.2297 41.764C80.3401 41.5629 80.3966 41.3353 80.3931 41.1044C80.3897 40.8735 80.3266 40.6476 80.2102 40.4499C80.0938 40.2522 79.9284 40.0898 79.7308 39.9793L65.4696 31.9059C63.8262 30.9642 61.9706 30.4831 60.0894 30.5109C58.2082 30.5388 56.3677 31.0746 54.7529 32.0645ZM72.9867 38.8802L76.0274 40.6016C76.1262 40.6568 76.2089 40.738 76.2671 40.8369C76.3253 40.9357 76.3569 41.0487 76.3586 41.1641C76.3603 41.2795 76.3321 41.3934 76.2768 41.4939C76.2216 41.5944 76.1413 41.678 76.0442 41.7362L64.5477 48.7016C63.5285 49.3267 62.3912 49.7217 61.2114 49.8604C60.0316 49.9991 58.8363 49.8782 57.7052 49.5059C58.0875 49.4157 58.4621 49.2939 58.8253 49.1417C61.1455 48.1687 62.9152 46.0202 64.0855 42.7546C64.8872 40.5095 66.0937 39.0661 67.672 38.4635C69.7054 37.6874 71.947 38.4334 72.9867 38.8802ZM67.8017 35.945L64.3298 33.9794C63.0452 33.2433 61.5948 32.8672 60.1243 32.889C58.6538 32.9107 57.2151 33.3296 55.9528 34.1034C54.9089 34.7293 54.0121 35.5836 53.3262 36.6056C52.6402 37.6277 52.182 38.7924 51.9839 40.0171C51.7859 41.2418 51.8529 42.4965 52.1803 43.6921C52.5076 44.8876 53.0872 45.9947 53.8779 46.9348C55.1951 47.4412 56.6463 47.4385 57.9609 46.9272C59.637 46.2131 60.9587 44.534 61.8901 41.9369C62.9383 39.0012 64.6141 37.0795 66.8696 36.2255C67.1737 36.1105 67.4852 36.0168 67.8017 35.945Z" fill="white"/>
<path d="M28.2181 51.883V57.5585" stroke="#77B2E9" stroke-linecap="round"/>
<path d="M31.8298 56.0106V61.6862" stroke="#77B2E9" stroke-linecap="round"/>
<path d="M35.9575 60.1383V65.8138" stroke="#77B2E9" stroke-linecap="round"/>
<path d="M41.117 63.234V68.9096" stroke="#77B2E9" stroke-linecap="round"/>
<path d="M45.2447 64.266V69.9415" stroke="#77B2E9" stroke-linecap="round"/>
<path d="M50.4042 66.3298V72.0053" stroke="#77B2E9" stroke-linecap="round"/>
<path d="M56.5958 67.3617V73.0372" stroke="#77B2E9" stroke-linecap="round"/>
<path d="M62.7872 67.3617V73.0372" stroke="#77B2E9" stroke-linecap="round"/>
<path d="M68.9787 67.3617V73.0372" stroke="#77B2E9" stroke-linecap="round"/>
<path d="M76.2021 66.3298V72.0053" stroke="#77B2E9" stroke-linecap="round"/>
<path d="M83.4255 64.266V69.9415" stroke="#77B2E9" stroke-linecap="round"/>
<path d="M89.617 61.1702V66.8457" stroke="#77B2E9" stroke-linecap="round"/>
<path d="M96.8405 54.9787V60.6543" stroke="#77B2E9" stroke-linecap="round"/>
<path d="M100.968 49.8192V53.9468" stroke="#77B2E9" stroke-linecap="round"/>
<path d="M88.5851 42.5957C88.5851 37.6529 85.1914 33.2174 79.8138 30.1916" stroke="white" stroke-linecap="round" stroke-linejoin="round" stroke-dasharray="4 4"/>
<path fill-rule="evenodd" clip-rule="evenodd" d="M81.3617 26.0851C81.3617 12.4072 64.2675 1.31915 43.1809 1.31915C22.0942 1.31915 5 12.4072 5 26.0851C5 28.1568 5 30.2049 5 32.2766C5 45.9545 22.0942 57.0426 43.1809 57.0426C64.2675 57.0426 81.3617 45.9545 81.3617 32.2766C81.3617 30.2049 81.3617 28.1568 81.3617 26.0851Z" fill="#7CC0F9" stroke="#78B3E8"/>
<ellipse cx="43.1809" cy="26.0851" rx="38.1809" ry="24.766" fill="#A0D3FB" stroke="#78B3E8"/>
<ellipse cx="43.1809" cy="26.0851" rx="34.0532" ry="21.6702" fill="#A0D3FB" stroke="#78B3E8" stroke-linecap="round" stroke-linejoin="round" stroke-dasharray="6 6"/>
<ellipse cx="43.1808" cy="26.0851" rx="29.9255" ry="19.6064" fill="#78B5EA"/>
<ellipse cx="43.1809" cy="26.0851" rx="27.8617" ry="17.5426" fill="#A0D3FB"/>
<path fill-rule="evenodd" clip-rule="evenodd" d="M34.1146 17.6177C32.5025 18.5829 31.1695 19.9709 30.2524 21.6397C29.3353 23.3084 28.8669 25.1978 28.8953 27.1143C28.9236 29.0309 29.4477 30.9056 30.4138 32.5465C31.38 34.1873 32.7534 35.5353 34.3934 36.4524C36.0368 37.3941 37.8924 37.8752 39.7735 37.8473C41.6547 37.8195 43.4952 37.2837 45.1101 36.2938L59.1261 27.8018C59.3203 27.6854 59.4809 27.5182 59.5914 27.3172C59.7018 27.1161 59.7583 26.8885 59.7548 26.6576C59.7514 26.4267 59.6883 26.2008 59.5719 26.0031C59.4555 25.8054 59.2901 25.643 59.0925 25.5325L44.8313 17.459C43.1879 16.5174 41.3323 16.0363 39.4511 16.0641C37.5699 16.0919 35.7294 16.6278 34.1146 17.6177ZM52.3484 24.4334L55.3891 26.1548C55.4879 26.21 55.5706 26.2912 55.6288 26.3901C55.687 26.4889 55.7186 26.6018 55.7203 26.7173C55.722 26.8327 55.6938 26.9466 55.6385 27.0471C55.5833 27.1476 55.503 27.2312 55.4059 27.2894L43.9094 34.2548C42.8902 34.8799 41.7529 35.2749 40.5731 35.4136C39.3933 35.5523 38.198 35.4314 37.0668 35.0591C37.4492 34.9689 37.8238 34.8471 38.187 34.6949C40.5072 33.7219 42.2769 31.5734 43.4472 28.3078C44.2488 26.0627 45.4553 24.6193 47.0337 24.0167C49.0671 23.2406 51.3087 23.9866 52.3484 24.4334ZM47.1634 21.4982L43.6915 19.5326C42.4069 18.7965 40.9564 18.4204 39.486 18.4421C38.0155 18.4639 36.5768 18.8828 35.3145 19.6566C34.2706 20.2825 33.3738 21.1368 32.6879 22.1588C32.0019 23.1809 31.5437 24.3456 31.3456 25.5703C31.1476 26.795 31.2146 28.0497 31.5419 29.2453C31.8693 30.4408 32.4489 31.5479 33.2396 32.488C34.5568 32.9944 36.008 32.9917 37.3226 32.4804C38.9987 31.7663 40.3204 30.0872 41.2518 27.4901C42.3 24.5544 43.9758 22.6327 46.2313 21.7787C46.5354 21.6637 46.8469 21.57 47.1634 21.4982Z" fill="#7ABFF9"/>
<path fill-rule="evenodd" clip-rule="evenodd" d="M34.1146 15.5538C32.5025 16.519 31.1695 17.9071 30.2524 19.5758C29.3353 21.2446 28.8669 23.134 28.8953 25.0505C28.9236 26.967 29.4477 28.8418 30.4138 30.4826C31.38 32.1235 32.7534 33.4715 34.3934 34.3886C36.0368 35.3302 37.8924 35.8113 39.7735 35.7835C41.6547 35.7557 43.4952 35.2198 45.1101 34.2299L59.1261 25.7379C59.3203 25.6216 59.4809 25.4544 59.5914 25.2533C59.7018 25.0523 59.7583 24.8246 59.7548 24.5937C59.7514 24.3628 59.6883 24.137 59.5719 23.9393C59.4555 23.7416 59.2901 23.5792 59.0925 23.4687L44.8313 15.3952C43.1879 14.4535 41.3323 13.9724 39.4511 14.0003C37.5699 14.0281 35.7294 14.5639 34.1146 15.5538ZM52.3484 22.3696L55.3891 24.0909C55.4879 24.1462 55.5706 24.2274 55.6288 24.3262C55.687 24.4251 55.7186 24.538 55.7203 24.6535C55.722 24.7689 55.6938 24.8827 55.6385 24.9833C55.5833 25.0838 55.503 25.1674 55.4059 25.2256L43.9094 32.191C42.8902 32.8161 41.7529 33.2111 40.5731 33.3498C39.3933 33.4885 38.198 33.3676 37.0668 32.9953C37.4492 32.9051 37.8238 32.7833 38.187 32.631C40.5072 31.6581 42.2769 29.5096 43.4472 26.244C44.2488 23.9989 45.4553 22.5555 47.0337 21.9529C49.0671 21.1767 51.3087 21.9228 52.3484 22.3696ZM47.1634 19.4344L43.6915 17.4688C42.4069 16.7326 40.9564 16.3566 39.486 16.3783C38.0155 16.4001 36.5768 16.8189 35.3145 17.5928C34.2706 18.2187 33.3738 19.073 32.6879 20.095C32.0019 21.117 31.5437 22.2818 31.3456 23.5065C31.1476 24.7312 31.2146 25.9859 31.5419 27.1814C31.8693 28.377 32.4489 29.4841 33.2396 30.4242C34.5568 30.9306 36.008 30.9279 37.3226 30.4166C38.9987 29.7025 40.3204 28.0234 41.2518 25.4263C42.3 22.4906 43.9758 20.5688 46.2313 19.7149C46.5354 19.5999 46.8469 19.5062 47.1634 19.4344Z" fill="white"/>
<path d="M7.57977 35.3723V41.0479" stroke="#77B2E9" stroke-linecap="round"/>
<path d="M11.1915 39.5V45.1755" stroke="#77B2E9" stroke-linecap="round"/>
<path d="M15.3192 43.6277V49.3032" stroke="#77B2E9" stroke-linecap="round"/>
<path d="M20.4787 46.7234V52.3989" stroke="#77B2E9" stroke-linecap="round"/>
<path d="M24.6064 47.7553V53.4309" stroke="#77B2E9" stroke-linecap="round"/>
<path d="M29.7659 49.8192V55.4947" stroke="#77B2E9" stroke-linecap="round"/>
<path d="M35.9575 50.8511V56.5266" stroke="#77B2E9" stroke-linecap="round"/>
<path d="M42.1489 50.8511V56.5266" stroke="#77B2E9" stroke-linecap="round"/>
<path d="M48.3405 50.8511V56.5266" stroke="#77B2E9" stroke-linecap="round"/>
<path d="M55.5638 49.8192V55.4947" stroke="#77B2E9" stroke-linecap="round"/>
<path d="M62.7872 47.7553V53.4309" stroke="#77B2E9" stroke-linecap="round"/>
<path d="M68.9787 44.6596V50.3351" stroke="#77B2E9" stroke-linecap="round"/>
<path d="M76.2021 38.4681V44.1436" stroke="#77B2E9" stroke-linecap="round"/>
<path d="M80.3298 33.3085V37.4362" stroke="#77B2E9" stroke-linecap="round"/>
<path d="M67.9468 26.0851C67.9468 21.1423 64.5531 16.7068 59.1755 13.681" stroke="white" stroke-linecap="round" stroke-linejoin="round" stroke-dasharray="4 4"/>
</g>
<defs>
<filter id="filter0_d_1_739" x="0.5" y="0.819153" width="106" height="95.6808" filterUnits="userSpaceOnUse" color-interpolation-filters="sRGB">
<feFlood flood-opacity="0" result="BackgroundImageFix"/>
<feColorMatrix in="SourceAlpha" type="matrix" values="0 0 0 0 0 0 0 0 0 0 0 0 0 0 0 0 0 0 127 0" result="hardAlpha"/>
<feOffset dy="4"/>
<feGaussianBlur stdDeviation="2"/>
<feComposite in2="hardAlpha" operator="out"/>
<feColorMatrix type="matrix" values="0 0 0 0 0.167546 0 0 0 0 0.632101 0 0 0 0 0.996457 0 0 0 0.19 0"/>
<feBlend mode="normal" in2="BackgroundImageFix" result="effect1_dropShadow_1_739"/>
<feBlend mode="normal" in="SourceGraphic" in2="effect1_dropShadow_1_739" result="shape"/>
</filter>
</defs>
</svg>
