<svg width="54" height="54" viewBox="0 0 54 54" fill="none" xmlns="http://www.w3.org/2000/svg">
<path d="M5 19.6667H49M19.6667 34.3333L24.5556 39.2222L34.3333 29.4444M14.7778 5V9.88889M39.2222 5V9.88889M12.8222 49H41.1778C43.9158 49 45.2848 49 46.3306 48.4671C47.2505 47.9984 47.9984 47.2505 48.4671 46.3306C49 45.2848 49 43.9158 49 41.1778V17.7111C49 14.9731 49 13.6041 48.4671 12.5583C47.9984 11.6384 47.2505 10.8905 46.3306 10.4217C45.2848 9.88889 43.9158 9.88889 41.1778 9.88889H12.8222C10.0842 9.88889 8.71517 9.88889 7.66938 10.4217C6.74948 10.8905 6.00157 11.6384 5.53286 12.5583C5 13.6041 5 14.9731 5 17.7111V41.1778C5 43.9158 5 45.2848 5.53286 46.3306C6.00157 47.2505 6.74948 47.9984 7.66938 48.4671C8.71517 49 10.0842 49 12.8222 49Z" stroke="url(#paint0_linear_1_810)" stroke-width="3.5" stroke-linecap="round" stroke-linejoin="round"/>
<defs>
<linearGradient id="paint0_linear_1_810" x1="49" y1="1.86739e-06" x2="5" y2="49" gradientUnits="userSpaceOnUse">
<stop stop-color="#3173FF"/>
<stop offset="1" stop-color="#002063"/>
</linearGradient>
</defs>
</svg>
