<svg width="54" height="54" viewBox="0 0 54 54" fill="none" xmlns="http://www.w3.org/2000/svg">
<path d="M47.2668 22.0687C48.3812 20.4269 49 18.5971 49 16.6371C48.9995 8.76271 39.0219 3 26.9998 3C14.9776 3 5 8.76271 5 16.6371C5 18.5971 5.61833 20.4264 6.73322 22.0687C5.6188 23.7104 5 25.5403 5 27.5002C5 29.4602 5.61833 31.2896 6.73322 32.9318C5.6188 34.5736 5 36.4034 5 38.3634C5 46.2378 14.9776 52 26.9998 52C39.0219 52 48.9995 46.2378 48.9995 38.3634C48.9995 36.4034 48.3812 34.5741 47.2663 32.9318C48.3807 31.29 48.9995 29.4602 48.9995 27.5002C48.9995 25.5403 48.3817 23.7109 47.2668 22.0687ZM45.5487 27.5002C45.5487 28.496 45.2464 29.4028 44.7778 30.212C44.142 31.3097 43.2 32.2251 42.2917 32.9318C41.78 33.3299 41.2792 33.6611 40.8499 33.9219C39.1162 34.9731 37.0613 35.8034 34.7414 36.3895C32.3041 37.0049 29.6996 37.3169 26.9998 37.3169C24.3 37.3169 21.6949 37.0049 19.2581 36.3895C16.9383 35.8038 14.8833 34.9731 13.1496 33.9219C12.7204 33.6611 12.2195 33.3299 11.7078 32.9318C10.799 32.2251 9.85709 31.3097 9.2217 30.212C8.7531 29.4033 8.4508 28.496 8.4508 27.5002C8.4508 26.5045 8.75262 25.5967 9.2217 24.7885C10.4451 25.8197 11.8983 26.7313 13.5325 27.5002C15.2818 28.3233 17.2382 28.9836 19.3415 29.4526C21.7333 29.9866 24.3151 30.2737 26.9993 30.2737C29.6835 30.2737 32.2653 29.9866 34.6571 29.4526C36.7604 28.9836 38.7168 28.3233 40.4661 27.5002C42.1003 26.7313 43.5535 25.8202 44.7769 24.7885C45.246 25.5967 45.5487 26.5045 45.5487 27.5002ZM13.1501 10.2155C14.8838 9.1637 16.9387 8.333 19.2586 7.74731C21.6954 7.13194 24.3004 6.81995 27.0002 6.81995C29.7 6.81995 32.3046 7.13194 34.7419 7.74731C37.0617 8.333 39.1167 9.1637 40.8504 10.2155C42.6054 11.2797 45.5497 13.5296 45.5497 16.6371C45.5497 17.6329 45.2474 18.5396 44.7788 19.3488C44.1429 20.4465 43.201 21.3619 42.2927 22.0687C41.7809 22.4668 41.2801 22.7979 40.8508 23.0587C39.1171 24.11 37.0622 24.9402 34.7424 25.5259C34.7144 25.5331 34.6865 25.5403 34.6581 25.547C32.2449 26.1484 29.6697 26.4537 27.0007 26.4537C24.3317 26.4537 21.7556 26.1489 19.3434 25.547C19.3154 25.5403 19.2875 25.5331 19.259 25.5259C16.9392 24.9402 14.8843 24.1095 13.1506 23.0587C12.7213 22.7979 12.2205 22.4668 11.7088 22.0687C10.8 21.3619 9.85804 20.4465 9.22265 19.3488C8.75405 18.5401 8.45175 17.6329 8.45175 16.6371C8.45175 13.5296 11.3951 11.2797 13.1501 10.2155ZM40.8494 44.7845C39.1157 45.8358 37.0608 46.666 34.741 47.2517C32.3037 47.8671 29.6991 48.1791 26.9993 48.1791C24.2995 48.1791 21.6944 47.8671 19.2576 47.2517C16.9378 46.666 14.8829 45.8353 13.1492 44.7845C11.3942 43.7198 8.44986 41.4694 8.44986 38.3629C8.44986 37.3671 8.75168 36.4594 9.22076 35.6512C13.2439 39.0414 19.7494 41.1364 26.9988 41.1364C34.2482 41.1364 40.7537 39.0414 44.7769 35.6512C45.246 36.4594 45.5478 37.3671 45.5478 38.3629C45.5478 41.4694 42.6044 43.7198 40.8494 44.7845Z" fill="url(#paint0_linear_1_816)"/>
<defs>
<linearGradient id="paint0_linear_1_816" x1="66.5" y1="-0.500005" x2="9" y2="40.5" gradientUnits="userSpaceOnUse">
<stop stop-color="#FFB700"/>
<stop offset="1" stop-color="#814B09" stop-opacity="0.29"/>
</linearGradient>
</defs>
</svg>
