<svg width="12" height="12" fill="none" xmlns="http://www.w3.org/2000/svg" viewBox="0 0 12 12"><path d="m6.5 2 .876 2.222c.094.238.141.358.213.458a1 1 0 0 0 .231.23c.1.073.22.12.458.214L10.5 6l-2.222.876c-.238.094-.358.141-.458.213a1 1 0 0 0-.23.231c-.073.1-.12.22-.214.458L6.5 10l-.876-2.222c-.094-.238-.141-.358-.213-.458a1 1 0 0 0-.231-.23c-.1-.073-.22-.12-.458-.214L2.5 6l2.222-.876c.238-.094.358-.141.458-.213a1 1 0 0 0 .23-.231c.073-.1.12-.22.214-.458L6.5 2Z" stroke="#FFE470" stroke-linecap="round" stroke-linejoin="round"/></svg>