<svg width="109" height="227" fill="none" xmlns="http://www.w3.org/2000/svg" viewBox="0 0 109 227"><circle cx="52" cy="14" r="14" fill="url(#a)"/><circle cx="52" cy="91" r="14" fill="#44E0C3"/><circle cx="52" cy="91" r="17.5" stroke="#fff"/><circle cx="14" cy="213" r="13.5" stroke="#1954FF"/><circle cx="95" cy="213" r="14" fill="#44E0C3"/><path stroke="#fff" stroke-dasharray="2 2" d="M52.5 121v33"/><path d="M51.646 67.354a.5.5 0 0 0 .708 0l3.181-3.182a.5.5 0 1 0-.707-.707L52 66.293l-2.828-2.829a.5.5 0 1 0-.707.708l3.181 3.182ZM51.5 34v1.031h1V34h-1Zm0 3.094v2.062h1v-2.062h-1Zm0 4.125v2.062h1V41.22h-1Zm0 4.125v2.062h1v-2.062h-1Zm0 4.125v2.062h1V49.47h-1Zm0 4.125v2.062h1v-2.062h-1Zm0 4.125v2.062h1V57.72h-1Zm0 4.125v2.062h1v-2.062h-1Zm0 4.125V67h1v-1.031h-1ZM10.646 188.354a.5.5 0 0 0 .708 0l3.182-3.182a.501.501 0 0 0-.708-.708L11 187.293l-2.828-2.829a.5.5 0 0 0-.708.708l3.182 3.182ZM11 158v-.5h-.5v.5h.5Zm82 0h.5v-.5H93v.5Zm-.354 30.354a.5.5 0 0 0 .708 0l3.181-3.182a.501.501 0 0 0-.707-.708L93 187.293l-2.828-2.829a.5.5 0 0 0-.707.708l3.181 3.182ZM11.5 188v-.938h-1V188h1Zm0-2.812v-1.876h-1v1.876h1Zm0-3.75v-1.876h-1v1.876h1Zm0-3.75v-1.876h-1v1.876h1Zm0-3.75v-1.876h-1v1.876h1Zm0-3.75v-1.876h-1v1.876h1Zm0-3.75v-1.876h-1v1.876h1Zm0-3.75v-1.876h-1v1.876h1Zm0-3.75V158h-1v.938h1Zm-.5-.438h.976v-1H11v1Zm2.929 0h1.952v-1h-1.952v1Zm3.904 0h1.953v-1h-1.953v1Zm3.905 0h1.953v-1h-1.953v1Zm3.905 0h1.952v-1h-1.952v1Zm3.905 0H31.5v-1h-1.952v1Zm3.904 0h1.953v-1h-1.953v1Zm3.905 0h1.953v-1h-1.953v1Zm3.905 0h1.952v-1h-1.952v1Zm3.905 0h1.952v-1h-1.952v1Zm3.904 0h1.953v-1H49.07v1Zm3.905 0h1.953v-1h-1.953v1Zm3.905 0h1.952v-1h-1.952v1Zm3.905 0h1.952v-1h-1.952v1Zm3.904 0h1.953v-1H64.69v1Zm3.905 0h1.953v-1h-1.953v1Zm3.905 0h1.952v-1H72.5v1Zm3.905 0h1.952v-1h-1.952v1Zm3.904 0h1.953v-1h-1.953v1Zm3.905 0h1.953v-1h-1.953v1Zm3.905 0h1.952v-1H88.12v1Zm3.905 0H93v-1h-.976v1Zm.476-.5v.938h1V158h-1Zm0 2.812v1.876h1v-1.876h-1Zm0 3.75v1.876h1v-1.876h-1Zm0 3.75v1.876h1v-1.876h-1Zm0 3.75v1.876h1v-1.876h-1Zm0 3.75v1.876h1v-1.876h-1Zm0 3.75v1.876h1v-1.876h-1Zm0 3.75v1.876h1v-1.876h-1Zm0 3.75V188h1v-.938h-1Z" fill="#fff"/><defs><linearGradient id="a" x1="52" y1="0" x2="52" y2="28" gradientUnits="userSpaceOnUse"><stop stop-color="#0041FF"/><stop offset="1" stop-color="#0037D8"/></linearGradient></defs></svg>